<svg viewBox="0 0 24 24" xmlns="http://www.w3.org/2000/svg"><path d="M2.5,6.5l.028-1a1.016,1.016,0,0,1,.972-1h.944A1.068,1.068,0,0,1,5.5,5.5v1" fill="none" stroke="#000000" stroke-linecap="round" stroke-linejoin="round"></path><path d="M20.13,6.5a1,1,0,0,1-.906-.577C18.682,4.762,18.1,3.5,17,3.5H12c-.931,0-1.4.834-2.7,2.592A1,1,0,0,1,8.5,6.5h-6C1,6.5.5,7.179.5,8.223V18.611C.5,19.654,1,20.5,2.556,20.5H21.444c1.556,0,2.056-.846,2.056-1.889V8.223C23.5,7.179,23,6.5,21.444,6.5Z" fill="none" stroke="#000000" stroke-linecap="round" stroke-linejoin="round"></path><path d="M9.000 13.000 A5.500 5.500 0 1 0 20.000 13.000 A5.500 5.500 0 1 0 9.000 13.000 Z" fill="none" stroke="#000000" stroke-linecap="round" stroke-linejoin="round"></path><path d="M11.500 13.000 A3.000 3.000 0 1 0 17.500 13.000 A3.000 3.000 0 1 0 11.500 13.000 Z" fill="none" stroke="#000000" stroke-linecap="round" stroke-linejoin="round"></path><path d="M2.500 10.000 A1.500 1.500 0 1 0 5.500 10.000 A1.500 1.500 0 1 0 2.500 10.000 Z" fill="none" stroke="#000000" stroke-linecap="round" stroke-linejoin="round"></path></svg>