<svg xmlns="http://www.w3.org/2000/svg" viewBox="0 0 24 24"><defs></defs><title>camera-2</title><path d="M17.466,19.5H21.5a2,2,0,0,0,2-2V9.117a2,2,0,0,0-1.581-1.956l-4.126-.884" fill="none" stroke="#000000" stroke-linecap="round" stroke-linejoin="round"></path><rect x="0.5" y="6.5" width="5" height="14" rx="1" ry="1" fill="none" stroke="#000000" stroke-linecap="round" stroke-linejoin="round"></rect><line x1="10.192" y1="6.327" x2="5.5" y2="7.5" fill="none" stroke="#000000" stroke-linecap="round" stroke-linejoin="round"></line><path d="M18.725,9.536,17.414,4.951A2,2,0,0,0,15.491,3.5H12.509a2,2,0,0,0-1.923,1.451L9.275,9.536" fill="none" stroke="#000000" stroke-linecap="round" stroke-linejoin="round"></path><line x1="10.435" y1="5.5" x2="17.571" y2="5.5" fill="none" stroke="#000000" stroke-linecap="round" stroke-linejoin="round"></line><circle cx="14" cy="14" r="6.5" fill="none" stroke="#000000" stroke-linecap="round" stroke-linejoin="round"></circle><circle cx="14" cy="14" r="4.5" fill="none" stroke="#000000" stroke-linecap="round" stroke-linejoin="round"></circle><line x1="5.5" y1="19.5" x2="10.534" y2="19.5" fill="none" stroke="#000000" stroke-linecap="round" stroke-linejoin="round"></line></svg>