<?xml version="1.0" encoding="UTF-8"?>
<svg width="1200pt" height="1200pt" version="1.1" viewBox="0 0 1200 1200" xmlns="http://www.w3.org/2000/svg">
 <g>
  <path d="m988 336h-172v-73.332c0-18.668-14.668-33.332-33.332-33.332h-364c-18.668 0-33.332 14.668-33.332 33.332v73.332h-174.67c-22.668 0-40 17.332-40 40v554.67c0 22.668 18.668 40 40 40h777.34c22.668 0 40-17.332 40-40v-554.67c1.3281-22.668-17.336-40-40.004-40zm-245.33 461.33c-38.668 38.668-86.668 58.668-141.33 58.668-54.668 0-102.67-20-141.33-58.668-38.668-38.668-58.668-86.668-58.668-141.33 0-54.668 20-102.67 58.668-141.33 38.668-38.668 86.668-58.668 141.33-58.668 54.668 0 102.67 20 141.33 58.668 38.668 38.668 58.668 86.668 58.668 141.33-1.3359 54.668-21.336 102.67-58.668 141.33zm73.332-305.33v-82.668h152v82.668z"/>
  <path d="m606.67 528h-6.668-5.332c-33.332 1.332-61.332 13.332-85.332 37.332-25.332 25.332-37.332 56-37.332 90.668 0 36 12 65.332 37.332 90.668 24 24 53.332 36 85.332 37.332h5.332 6.668c33.332-1.332 61.332-13.332 85.332-37.332 25.332-25.332 37.332-56 37.332-90.668s-13.332-65.332-37.332-90.668c-25.332-24-52-36-85.332-37.332z"/>
 </g>
</svg>
