<?xml version="1.0" encoding="UTF-8"?>
<svg width="1200pt" height="1200pt" version="1.1" viewBox="0 0 1200 1200" xmlns="http://www.w3.org/2000/svg">
 <g>
  <path d="m705.41 426.08c-38.016 0-68.953 30.887-68.953 68.855 0 37.961 30.938 68.848 68.953 68.848 38.027 0 68.965-30.887 68.965-68.848 0-37.973-30.938-68.855-68.965-68.855zm0 113.7c-24.785 0-44.953-20.121-44.953-44.848 0-24.734 20.168-44.855 44.953-44.855 24.797 0 44.965 20.121 44.965 44.855 0 24.727-20.168 44.848-44.965 44.848z"/>
  <path d="m719.03 372.22c-3.6445-0.39844-7.3477-0.58203-11.078-0.65625-0.73047-0.007812-1.4336-0.12891-2.1641-0.12891-0.058594 0-0.11328 0.011718-0.17188 0.011718-0.066406 0-0.13672-0.011718-0.20312-0.011718-4.7695 0-9.4609 0.33203-14.094 0.85938-107.04 8.7539-189.63 110.64-193.25 115.17-3.4805 4.3789-3.4805 10.578 0 14.953 3.4609 4.3398 79.422 98.016 179.89 113.6 8.8438 2.0039 18.008 3.1602 27.453 3.1602 8.8906 0 17.547-0.98047 25.91-2.7617 101.6-14.488 178.68-109.62 182.17-114 3.4805-4.3789 3.4805-10.578 0-14.953-3.6289-4.5547-86.848-107.17-194.46-115.25zm86.461 123.08c0 47.73-33.742 87.691-78.66 97.512-6.9297 0.94922-13.926 1.6211-21.043 1.6211-7.7812 0-15.422-0.79688-22.984-1.9297-44.316-10.266-77.469-49.902-77.469-97.207 0-51.469 39.227-93.949 89.41-99.281 3.6055-0.26562 7.207-0.57031 10.859-0.57422 2.5703 0.003906 5.0977 0.19141 7.6211 0.38672 0.82422 0.042969 1.6445 0.078125 2.4648 0.13281 50.375 5.1523 89.801 47.738 89.801 99.34zm-282.2-0.36719c12-13.41 40.031-42.254 77.203-65.461-12.066 19.098-19.16 41.629-19.16 65.828 0 23.652 6.793 45.699 18.363 64.516-36.742-23.109-64.484-51.59-76.406-64.883zm287.29 65.777c11.906-19.012 18.906-41.383 18.906-65.41 0-24.484-7.2461-47.27-19.578-66.512 37.73 23.324 66.223 52.621 78.359 66.152-12.055 13.473-40.27 42.516-77.688 65.77z"/>
  <path d="m501.33 291.61c-112.32 112.32-112.32 295.08 0 407.39 56.168 56.168 129.91 84.238 203.7 84.238 73.758 0 147.55-28.09 203.71-84.238 112.32-112.32 112.32-295.08 0-407.39-112.34-112.31-295.09-112.31-407.4 0zm390.43 390.43c-102.97 102.96-270.52 102.96-373.46 0-102.96-102.96-102.96-270.5 0-373.46 51.48-51.48 119.1-77.223 186.73-77.223 67.629 0 135.26 25.738 186.74 77.223 102.96 102.96 102.96 270.5 0 373.46z"/>
  <path d="m439.89 230.16c-130.13 130.13-144.33 332.85-42.805 478.95l-50.695 50.695c-17.539-5.7148-37.555-1.8164-51.449 12.086l-147.06 147.06c-17.766 17.766-27.551 41.465-27.551 66.75 0 25.285 9.7852 48.984 27.551 66.75s41.473 27.551 66.75 27.551c25.289 0 48.984-9.7852 66.75-27.551l147.06-147.05c13.902-13.91 17.785-33.914 12.082-51.449l50.707-50.703c64.031 44.492 138.89 66.848 213.8 66.848 96.023 0 192.05-36.551 265.15-109.64 70.828-70.82 109.83-164.99 109.83-265.14 0-100.16-39-194.33-109.83-265.15-146.19-146.19-384.07-146.21-530.29 0zm-28.418 658.27-147.06 147.05c-13.23 13.23-30.902 20.52-49.781 20.52-18.867 0-36.551-7.2891-49.781-20.52-13.23-13.234-20.52-30.914-20.52-49.781 0-18.867 7.2891-36.547 20.52-49.781l147.06-147.06c5.1797-5.1797 11.988-7.7695 18.785-7.7695 6.8086 0 13.617 2.5898 18.797 7.7695l62.008 62.008c10.328 10.363 10.32 27.207-0.027344 37.559zm16.082-55.449-60.203-60.195 44.195-44.195c8.7656 11.012 18.16 21.676 28.344 31.859 10.184 10.18 20.848 19.578 31.859 28.34zm525.65-89.496c-136.84 136.82-359.51 136.84-496.35 0-136.84-136.85-136.84-359.51 0-496.36 68.426-68.422 158.3-102.63 248.18-102.63 89.871 0 179.74 34.211 248.17 102.63 136.84 136.85 136.84 359.51 0 496.36z"/>
 </g>
</svg>
