<?xml version="1.0" encoding="UTF-8"?>
<svg width="1200pt" height="1200pt" version="1.1" viewBox="0 0 1200 1200" xmlns="http://www.w3.org/2000/svg">
 <g>
  <path d="m926.67 569.33-133.33-201.33c-25.332-37.332-56-56-92-56h-201.33c-36 0-66.668 18.668-92 56l-133.33 201.33c-5.332 8-8 17.332-8 28 0 14.668 5.332 25.332 14.668 36 10.668 10.668 24 14.668 38.668 14.668 16-1.332 29.332-8 38.668-22.668l118.67-177.33 1.332-1.332h21.332c1.332 0 1.332 1.332 1.332 1.332v66.668 1.332l-181.33 304c-6.668 10.668 1.332 24 13.332 24h165.33c1.332 0 1.332 1.332 1.332 1.332l1.332 272c0 12 10.668 22.668 22.668 22.668h45.332c12 0 22.668-10.668 22.668-22.668v-288h17.332v288c0 12 10.668 22.668 22.668 22.668h45.332c12 0 22.668-10.668 22.668-22.668l1.332-272c0-1.332 1.332-1.332 1.332-1.332h162.67c12 0 20-13.332 13.332-24l-178.67-304v-1.332-66.668c0-1.332 1.332-1.332 1.332-1.332h21.332s1.332 0 1.332 1.332l118.67 177.33c9.332 13.332 22.668 21.332 38.668 22.668 14.668 1.332 28-4 38.668-14.668 9.332-9.332 14.668-21.332 14.668-36 0-10.664-2.668-20-8-28z"/>
  <path d="m600 294.67c30.668 0 56-9.332 77.332-29.332 28-25.332 42.668-62.668 38.668-100-2.668-30.668-16-56-40-77.332-18.668-16-42.668-25.332-66.668-28-32-2.668-60 6.668-82.668 25.332-29.332 24-45.332 61.332-44 98.668 1.332 29.332 13.332 54.668 34.668 76 22.668 23.996 50.668 34.664 82.668 34.664z"/>
 </g>
</svg>
