<?xml version="1.0" encoding="UTF-8"?>
<svg width="1200pt" height="1200pt" version="1.1" viewBox="0 0 1200 1200" xmlns="http://www.w3.org/2000/svg">
 <g>
  <path d="m1161.3 894.55-434.91-738c-26.547-45.273-73.816-72.363-126.36-72.363s-99.816 27.09-126.36 72.184l-434.91 738.18c-27.09 46-27.453 101.09-1.0898 147.27 26.363 46.363 74.184 74 127.45 74h869.64c53.453 0 101.09-27.637 127.45-74 26.547-46.367 26.184-101.46-0.90625-147.27zm-29.637 129.82c-20.184 35.273-56.363 56.184-96.91 56.184h-869.64c-40.547 0-76.727-21.09-96.91-56.184-20.18-35.09-19.633-77.09 0.91016-112l434.91-738c20.184-34.363 56.184-54.91 96-54.91s75.816 20.547 96 54.91l434.91 738c20.543 34.91 20.906 76.727 0.72656 112z"/>
  <path d="m678.55 402.18c-16.547-28.184-45.816-44.91-78.547-44.91-32.547 0-62 16.727-78.547 44.91l-247.45 420c-16.91 28.547-17.09 62.727-0.72656 91.453 16.363 28.727 46 46 79.09 46h494.91c33.09 0 62.727-17.09 79.09-46 16.363-28.727 16.184-62.91-0.72656-91.453zm217.45 494c-10 17.637-28.184 28.184-48.547 28.184l-494.91-0.003907c-20.363 0-38.547-10.547-48.547-28.184-10-17.637-10-38.547 0.36328-56l247.45-420c10.184-17.273 28.184-27.453 48.184-27.453s38 10.363 48.184 27.453l247.45 420c10.363 17.273 10.363 38.367 0.36328 56.004z"/>
  <path d="m585.64 762.73c3.0898 2.9102 7.2734 4.1836 12.184 4.1836 4.9102 0 8.9102-1.4531 12-4.1836 2.9102-2.9102 4.5469-6.5469 4.9102-11.09l7.0898-126.73v-38c0-6.7266-2.3633-12.547-6.9102-17.09-9.0898-9.4531-25.09-9.4531-34.547-0.18359-4.5469 4.7266-6.9102 10.547-6.9102 17.273v38.184l6.9102 126.73c0.36328 4.3633 2.1836 8.1797 5.2734 10.906z"/>
  <path d="m597.82 788c-7.4531 0-13.816 2.9102-19.09 8.1836-5.2734 5.2734-8.1836 11.637-8.1836 19.09 0 7.6367 2.9102 14.184 8.1836 19.453 5.2734 5.2734 11.637 8 19.09 8 7.6367 0 14.184-2.7266 19.453-8 5.2734-5.2734 8-11.816 8-19.453 0-7.4531-2.7266-13.816-8-19.09-5.4531-5.457-11.816-8.1836-19.453-8.1836z"/>
  <path d="m1122 460.55c3.2734 5.6367 9.0898 8.7266 15.273 8.7266 3.0898 0 6.1836-0.72656 8.9102-2.3633 8.3633-4.9102 11.09-15.816 6.1836-24.184l-66-112.18c-4.9102-8.3633-15.816-11.273-24.184-6.1836-8.3633 4.9102-11.09 15.816-6.1836 24.184z"/>
  <path d="m1077.5 596.55c3.2734 5.6367 9.0898 8.7266 15.273 8.7266 3.0898 0 6.1836-0.72656 8.9102-2.3633 8.3633-4.9102 11.09-15.816 6.1836-24.184l-160.18-271.82c-4.9102-8.3633-15.816-11.273-24.184-6.1836-8.3633 4.9102-11.09 15.816-6.1836 24.184z"/>
  <path d="m53.816 466.73c2.7266 1.6367 5.8164 2.3633 8.9102 2.3633 6 0 12-3.0898 15.273-8.7266l66-112.18c4.9102-8.3633 2.1836-19.273-6.1836-24.184-8.3633-4.9102-19.273-2.1836-24.184 6.1836l-66 112.18c-4.9062 8.7266-2.1797 19.453 6.1836 24.363z"/>
  <path d="m98.547 602.73c2.7266 1.6367 5.8164 2.3633 8.9102 2.3633 6 0 12-3.0898 15.273-8.7266l160.18-271.82c4.9102-8.3633 2.1836-19.273-6.1836-24.184-8.3633-4.9102-19.273-2.1836-24.184 6.1836l-160.36 272c-4.9102 8.3633-2 19.27 6.3633 24.18z"/>
 </g>
</svg>
