<?xml version="1.0" encoding="UTF-8"?>
<svg width="1200pt" height="1200pt" version="1.1" viewBox="0 0 1200 1200" xmlns="http://www.w3.org/2000/svg">
 <path d="m700 1025c0.003906 6.6328-2.6289 12.992-7.3164 17.684-4.6914 4.6875-11.051 7.3203-17.684 7.3164h-25c0 17.863-9.5312 34.371-25 43.301-15.469 8.9336-34.531 8.9336-50 0-15.469-8.9297-25-25.438-25-43.301h-25c-8.9297 0-17.184-4.7656-21.652-12.5-4.4648-7.7344-4.4648-17.266 0-25 4.4688-7.7344 12.723-12.5 21.652-12.5h150c6.6328-0.003906 12.992 2.6289 17.684 7.3164 4.6875 4.6914 7.3203 11.051 7.3164 17.684zm-475-500h-50c-8.9297 0-17.184 4.7656-21.652 12.5-4.4648 7.7344-4.4648 17.266 0 25 4.4688 7.7344 12.723 12.5 21.652 12.5h50c8.9297 0 17.184-4.7656 21.652-12.5 4.4648-7.7344 4.4648-17.266 0-25-4.4688-7.7344-12.723-12.5-21.652-12.5zm800 0h-50c-8.9297 0-17.184 4.7656-21.652 12.5-4.4648 7.7344-4.4648 17.266 0 25 4.4688 7.7344 12.723 12.5 21.652 12.5h50c8.9297 0 17.184-4.7656 21.652-12.5 4.4648-7.7344 4.4648-17.266 0-25-4.4688-7.7344-12.723-12.5-21.652-12.5zm-35.277-200c-3.3086-5.75-8.7734-9.9492-15.18-11.66-6.4102-1.7148-13.238-0.80469-18.977 2.5273l-43.309 25c-6.4023 3.6953-10.844 10.035-12.125 17.312-1.2812 7.2812 0.72656 14.754 5.4844 20.41 4.7539 5.6602 11.773 8.9219 19.164 8.9102 4.3828 0.007812 8.6914-1.1562 12.477-3.3672l43.309-25c5.7461-3.3086 9.9375-8.7656 11.656-15.168s0.81641-13.227-2.5-18.965zm-214.72-78.125c3.7852 2.2109 8.0898 3.375 12.477 3.3672 8.9414 0.007812 17.203-4.7578 21.68-12.5l25-43.309c4.4648-7.7383 4.4648-17.27-0.003906-25.004-4.4648-7.7344-12.723-12.5-21.656-12.5s-17.188 4.7656-21.652 12.504l-25 43.309c-3.3164 5.7422-4.2188 12.562-2.5 18.965 1.7188 6.4023 5.9102 11.859 11.656 15.168zm-175-46.875c6.6328 0.003906 12.992-2.6289 17.684-7.3164 4.6875-4.6914 7.3203-11.051 7.3164-17.684v-50c0-8.9297-4.7656-17.184-12.5-21.652-7.7344-4.4648-17.266-4.4648-25 0-7.7344 4.4688-12.5 12.723-12.5 21.652v50c-0.003906 6.6328 2.6289 12.992 7.3164 17.684 4.6914 4.6875 11.051 7.3203 17.684 7.3164zm-209.16 37.742c4.4766 7.7422 12.738 12.508 21.68 12.5 4.3867 0.007812 8.6914-1.1562 12.477-3.3672 5.7461-3.3086 9.9375-8.7656 11.656-15.168 1.7188-6.4023 0.81641-13.223-2.5-18.965l-25-43.309c-4.4648-7.7383-12.719-12.504-21.652-12.504s-17.191 4.7656-21.656 12.5c-4.4688 7.7344-4.4688 17.266-0.003906 25.004zm-103.1 103.12-43.309-25c-5.7383-3.3164-12.559-4.2188-18.961-2.5078s-11.863 5.8945-15.18 11.637c-3.3164 5.7383-4.2148 12.559-2.5 18.961 1.7109 6.4023 5.9023 11.859 11.641 15.176l43.309 25h0.003906c3.7812 2.2109 8.0898 3.375 12.473 3.3672 7.3906 0.011719 14.41-3.25 19.164-8.9102 4.7578-5.6562 6.7656-13.129 5.4844-20.41-1.2812-7.2773-5.7227-13.617-12.125-17.312zm612.26 209.13c-0.011719 52.621-13.879 104.31-40.211 149.88-26.332 45.559-64.199 83.383-109.79 109.66v40.465c0 26.523-10.535 51.957-29.289 70.711-18.754 18.754-44.188 29.289-70.711 29.289h-100c-26.523 0-51.957-10.535-70.711-29.289-18.754-18.754-29.289-44.188-29.289-70.711v-40.465c-61.035-35.285-107.69-90.949-131.77-157.21-24.078-66.266-24.039-138.89 0.10547-205.13 24.148-66.238 70.859-121.86 131.93-157.08 61.074-35.223 132.61-47.805 202.03-35.535 69.43 12.273 132.31 48.613 177.61 102.64 45.301 54.023 70.117 122.28 70.094 192.79zm-50 0c0.0625-58.797-20.598-115.73-58.352-160.8-37.754-45.07-90.188-75.395-148.08-85.641-57.895-10.246-117.55 0.24219-168.48 29.617-50.93 29.379-89.875 75.766-110 131.01-20.117 55.246-20.121 115.82-0.007813 171.07 20.113 55.246 59.055 101.64 109.98 131.02 15.438 8.9414 24.938 25.426 24.938 43.262v40.465c0.015625 13.258 5.2891 25.965 14.66 35.34 9.375 9.3711 22.082 14.645 35.34 14.66h100c13.258-0.015625 25.965-5.2891 35.34-14.66 9.3711-9.375 14.645-22.082 14.66-35.34v-40.465c0-17.836 9.5039-34.324 24.938-43.262 37.922-21.984 69.422-53.52 91.363-91.465 21.945-37.945 33.562-80.977 33.699-124.81z"/>
</svg>
