<?xml version="1.0" encoding="UTF-8"?>
<svg width="1200pt" height="1200pt" version="1.1" viewBox="0 0 1200 1200" xmlns="http://www.w3.org/2000/svg">
 <g>
  <path d="m1053.3 343.48c3.75 2.2266 7.6172 4.3359 11.367 6.5625 1.9922 1.1719 3.8672 2.2266 5.8594 3.3984 0.46875 0.23438 1.1719 0.35156 0.11719-0.11719-0.11719-0.11719-0.35156-0.35156-0.46875-0.46875 1.1719 1.2891 1.4062 1.4062 0.70312 0.46875-0.70312-1.0547-0.58594-0.82031 0.35156 0.70313-0.23438-0.46875-0.46875-0.9375-0.58594-1.4062 0.11719 0.46875 0.23438 0.9375 0.35156 1.4062-0.11719-0.58594-0.11719-1.1719-0.23437-1.7578v1.5234c0.11719-0.58594 0.11719-1.1719 0.23437-1.6406-0.70312 0.70312-1.0547 2.1094 0 0.23437-0.46875 0.82031-0.9375 1.5234-1.2891 2.3438-2.2266 3.8672-4.4531 7.6172-6.6797 11.484-5.8594 10.078-11.602 20.156-17.461 30.234-1.4062 2.3438-2.6953 4.8047-4.1016 7.1484 1.4062-2.3438 0.58594 0.35156-0.23437 0.23438 2.2266 0.58594-0.11719-3.0469-0.11719-0.11719 0.23438-0.11719 0.46875-0.23438 0.70312-0.35156 1.1719-0.46875 0.9375-0.46875-0.70312 0.11719 0.23438 0 0.58594-0.11719 0.82031-0.11719 1.4062-0.11719 1.1719-0.23438-0.58594-0.11719 0.23438 0 0.58594 0.11719 0.82031 0.11719 1.2891 0.23438 1.1719 0.11719-0.58594-0.35156 0 0.11719 2.2266 0.9375 0.70312 0.11719-10.078-5.625-20.039-12.773-31.289-15.82-19.102-5.0391-39.258 0.46875-53.906 13.477-12.773 11.367-18.281 27.891-18.281 44.648 0 5.3906-0.23437 10.781 0 16.172v1.7578c0 0.35156 0.35156-1.4062 0.35156-1.5234-0.11719 0.23437-0.11719 0.46875-0.23438 0.70312-0.35156 1.1719-0.23438 1.0547 0.46875-0.70312-0.11719 0.23437-0.23438 0.46875-0.35156 0.70312-0.70313 1.0547-0.46875 0.9375 0.58594-0.58594l-0.46875 0.46875c-0.9375 0.82031-0.70312 0.70312 0.70312-0.46875-0.23438 0.11719-0.46875 0.23438-0.70312 0.35156-1.0547 0.58594-0.82031 0.46875 0.70312-0.35156 0.11719 0.11719-2.8125-0.35156 0.11719 0-7.3828-0.82031-15.352 0-22.734 0h-32.695-3.5156-0.46875c2.9297 0-0.11719 0.11719 0.11719 0l1.4062 0.70312c-0.46875-0.23438-0.82031-0.46875-1.2891-0.70312 0.35156 0.35156 0.82031 0.58594 1.1719 0.9375l-1.0547-1.0547c0.35156 0.35156 0.58594 0.82031 0.9375 1.1719-0.23438-0.46875-0.46875-0.82031-0.70313-1.2891 0.23438 0.46875 0.46875 0.9375 0.70313 1.4062-0.11719-0.46875-0.23438-0.9375-0.35156-1.5234 1.6406 0.46875 0.23438 2.1094 0.35156 1.5234 0.11719-1.7578 0-3.5156 0-5.2734 0-14.648 0.23437-28.594-6.6797-42.188-8.9062-17.344-26.836-28.359-45.938-30.352-15.469-1.5234-28.594 4.5703-41.602 12.07-2.3438 1.2891-4.6875 2.6953-6.9141 3.9844-0.82031 0.46875-1.6406 0.9375-2.3438 1.4062-1.6406 1.0547 2.1094 0 0 0.11719-2.3438 0.11719 1.0547 0.11719 0.9375 0h-1.5234c0.58594 0.11719 1.1719 0.11719 1.7578 0.23438-0.46875-0.11719-0.9375-0.23438-1.4062-0.35156 0.46875 0.23437 0.9375 0.46875 1.4062 0.58594 0-3.0469-2.3438 0.70312-0.11719 0.11719-1.1719 0.35156-1.1719-1.875-0.23437-0.23437-0.23438-0.35156-0.46875-0.58594-0.58594-0.9375-3.8672-8.6719-9.7266-16.992-14.531-25.195-4.6875-8.0859-9.2578-16.406-14.062-24.375-1.1719-1.9922 0.35156 2.2266-0.35156-0.9375 1.0547 4.5703 0.11719 0.11719 0.11719 0.23438 1.1719 1.9922-2.3438 1.5234 0.11719 0.35156-2.6953 1.2891 1.9922 1.5234 0.11719 0.23438-0.23438 0.35156-0.58594 0.82031-0.82031 1.1719 1.2891-1.1719 1.5234-1.4062 0.58594-0.58594-1.4062 0.58594 1.875-0.9375 2.4609-1.2891 2.6953-1.5234 5.2734-3.0469 7.9688-4.5703 13.359-7.7344 24.727-16.523 30.938-31.172 7.1484-16.875 6.0938-36.914-3.75-52.617-7.8516-12.539-19.688-19.336-32.109-26.484-1.7578-1.0547-3.5156-2.1094-5.3906-3.1641-1.5234-0.82031 0.58594 0.46875 0.35156 0.58594-0.23438-0.23438-0.35156-0.35156-0.58594-0.58594-0.9375-0.9375-0.82031-0.70312 0.35156 0.70312-0.23438-0.46875-0.46875-0.82031-0.70312-1.2891 0.70312 1.7578 0.82031 1.9922 0.46875 0.70313-0.23438-2.6953 0.11719 2.9297 0.11719 0.23437-0.11719-1.9922-0.11719 0.70313-0.23437 0.9375 0.9375-3.75 0-0.11719 0-0.23437 0.46875-0.82031 0.9375-1.7578 1.5234-2.5781 9.375-16.172 18.516-32.578 28.125-48.633 0.11719-0.23438-0.23438-0.11719-0.46875 0.46875-0.46875 1.1719 1.2891-0.23438 0-0.11719-1.875 0 0.70312 0.58594 0.70312-0.35156 0-0.23438-2.5781 1.5234 0 0.23438-2.1094 1.0547-1.7578 0.70312-0.23438 0.23438-5.1562 1.4062 0.23438-1.0547-0.23438 0.23438-0.35156 0.82031-2.2266-1.4062-0.46875 0 3.9844 3.1641 9.2578 5.3906 13.711 7.8516 14.531 8.4375 30.586 12.188 47.227 7.7344 18.867-5.1562 33.75-19.688 39.844-38.086 3.6328-10.898 3.3984-24.961 2.6953-36.445v-1.5234c0-0.35156-0.70312 3.0469-0.11719 0.82031 0.46875-2.2266-0.23438 0.70312-0.46875 0.70312 0.23438-0.46875 0.46875-0.82031 0.70312-1.2891-0.35156 0.35156-0.58594 0.82031-0.9375 1.1719 0.35156-0.35156 0.70312-0.70312 1.0547-1.0547-0.35156 0.35156-0.82031 0.58594-1.1719 0.9375 0.46875-0.23438 0.82031-0.46875 1.2891-0.70313-0.46875 0.23438-0.9375 0.46875-1.4062 0.70313-0.58594-0.58594 5.0391 0.46875 0 0 2.3438 0.23437 4.8047 0 7.1484 0h34.453 14.062c1.0547 0 2.1094 0.11719 3.1641 0h0.46875c-0.46875-0.11719-1.0547-0.23438-1.5234-0.35156 0.46875 0.11719 0.9375 0.23438 1.5234 0.35156-1.6406-0.82031-1.875-0.9375-0.70312-0.35156 0.82031 0.46875 0.82031 0.46875 0-0.11719-1.875-1.2891 1.9922 0.46875 0 0-0.11719-0.23438-0.35156-0.35156-0.46875-0.58594 0.82031 1.5234 0.9375 1.7578 0.35156 0.58594-0.11719-0.23438-0.23438-0.46875-0.35156-0.70313 0.35156 1.7578 0.46875 1.9922 0.23438 0.70313 0.11719-0.46875-0.11719-1.0547-0.11719-0.70313v5.7422c0 4.8047-0.11719 9.7266 0 14.531 0.23438 19.57 9.6094 37.031 25.664 48.047 15.938 10.898 36.68 12.305 54.258 4.8047 4.9219-2.1094 9.4922-4.9219 14.18-7.6172 2.4609-1.4062 4.9219-2.8125 7.2656-4.2188 0.70312-0.35156 1.2891-0.82031 1.9922-1.1719 1.9922-1.1719-3.5156 0.70312 0.70312-0.35156-0.23437 0.11719-2.9297 0.11719-0.9375 0.23437 2.6953 0.11719-2.9297-0.35156-0.23437-0.11719 2.4609 0.23438-2.4609 0-0.11719 0 1.9922-0.11719-1.7578-0.9375 0 0 1.6406 0.9375-0.35156-0.35156-0.35156-0.35156 0.23437 0.35156 0.46875 0.70313 0.70312 1.1719 1.6406 3.5156 3.8672 6.7969 5.7422 10.078 5.8594 10.195 11.719 20.391 17.578 30.469 1.7578 3.0469 3.5156 5.9766 5.1562 9.0234 0.11719 0.23438 0.23438 0.35156 0.35156 0.58594-1.4062-2.4609 0.35156 1.2891-0.11719-0.70313-0.58594-2.8125-0.23438 2.6953 0-0.23437 0.23438-2.3438 0 0.46875-0.23438 0.58594 0.23438-0.46875 0.46875-0.9375 0.58594-1.4062-0.23437 0.46875-0.46875 0.82031-0.70312 1.2891 1.0547-1.2891 1.1719-1.5234 0.35156-0.70313-0.9375 0.82031-0.70312 0.70313 0.46875-0.35156-8.9062 5.2734-18.398 9.8438-26.367 16.406-13.711 11.25-21.445 29.883-19.922 47.578 1.2891 19.453 11.484 36.094 28.008 46.055 8.0859 4.9219 19.336 1.7578 24.023-6.3281 4.8047-8.3203 1.875-19.102-6.3281-24.023-0.9375-0.58594-5.1562-3.9844-2.5781-1.5234-1.4062-1.2891-2.6953-2.6953-4.1016-3.9844-2.2266-2.2266-0.23438-0.35156 0.11719 0.23437-0.46875-0.82031-1.0547-1.5234-1.5234-2.3438-0.46875-0.82031-0.82031-1.6406-1.2891-2.3438-2.1094-3.3984 0.70313 3.0469-0.35156-0.82031-0.46875-1.7578-0.9375-3.5156-1.4062-5.1562-0.35156-1.0547 0-3.0469 0 0.70312 0-0.9375-0.11719-1.7578-0.23438-2.6953-0.11719-1.7578 0.11719-3.5156 0.23438-5.3906 0 0.58594-0.82031 3.75 0 0.70312 0.23438-1.0547 0.46875-2.2266 0.82031-3.2812 0.23438-0.82031 0.70313-1.7578 0.82031-2.5781 0.46875-2.2266-1.6406 2.2266-0.23438 0.46875 0.9375-1.1719 1.6406-2.8125 2.3438-4.2188 1.4062-2.5781 0.23438-0.46875-0.23438 0.23437 0.58594-0.70312 1.1719-1.4062 1.875-2.1094 0.70312-0.70313 1.4062-1.2891 1.9922-1.9922 2.6953-2.9297-2.4609 1.2891 1.0547-0.9375 4.1016-2.4609 8.3203-4.9219 12.539-7.3828 5.2734-3.0469 10.898-5.8594 15.117-10.195 8.9062-9.1406 12.07-23.32 7.6172-35.273-3.1641-8.5547-8.7891-16.406-13.242-24.258-5.625-9.7266-11.25-19.57-16.875-29.297-8.7891-15.234-25.195-24.844-42.891-18.281-5.625 2.1094-10.781 5.5078-16.055 8.5547-2.1094 1.1719-4.2188 2.4609-6.4453 3.6328-0.35156 0.23438-0.70312 0.46875-1.0547 0.58594-0.9375 0.46875-1.875 0.9375-2.8125 1.5234 2.1094-1.1719 0.70312-0.23438-0.70313 0.23438-0.70312 0.23438-6.2109 1.6406-4.1016 1.1719 1.9922-0.46875-3.1641 0.11719-4.1016 0.11719s-1.875-0.23437-2.8125-0.11719c-2.4609 0.11719 2.6953 0.9375 0.46875 0-1.7578-0.70312-4.1016-1.1719-6.0938-1.6406 3.6328 0.9375-0.70313-0.35156-2.1094-1.1719-1.0547-0.58594-4.9219-3.6328-2.1094-1.1719-1.4062-1.2891-2.6953-2.5781-3.9844-3.8672-2.2266-2.1094-0.35156-0.35156 0.11719 0.35156-0.70312-0.9375-1.2891-1.9922-1.9922-2.9297-0.46875-0.82031-0.82031-1.7578-1.4062-2.4609-1.5234-1.875 0.58594 2.5781 0 0.23438-0.46875-1.6406-0.9375-4.1016-1.6406-5.625-1.0547-2.2266 0 2.6953 0 0.23438 0-1.0547-0.11719-2.1094-0.11719-3.1641v-1.9922-16.758c0-20.273-13.828-35.977-34.453-36.562-19.219-0.58594-38.672-0.23438-58.008 0-20.156 0.35156-34.688 15.586-34.922 35.508-0.11719 5.5078 0 11.016 0 16.523 0 1.875 0 3.8672-0.11719 5.7422-0.11719 3.5156-0.11719 0.58594 0-0.11719-0.23438 0.9375-0.35156 1.9922-0.70312 2.9297-0.23438 0.9375-0.58594 1.875-0.82031 2.8125-1.1719 3.8672 1.6406-2.3438-0.58594 1.0547-1.0547 1.6406-1.875 3.2812-3.0469 4.8047 2.2266-3.0469-1.0547 0.9375-1.875 1.7578-0.70312 0.58594-1.4062 1.2891-2.1094 1.875 0.58594-0.46875 2.9297-1.7578 0.23438-0.23437-1.7578 1.0547-3.6328 1.9922-5.3906 3.0469-1.9922 1.1719 2.6953-0.46875 0.35156-0.23437-0.9375 0.11719-1.7578 0.58594-2.6953 0.82031s-1.875 0.35156-2.6953 0.58594c-2.2266 0.9375 2.9297 0.11719 0.46875 0-1.6406-0.11719-3.2812 0.23437-4.9219 0.11719-0.9375 0-1.875-0.11719-2.8125-0.23438 4.3359 0.46875-0.35156-0.23438-1.0547-0.46875-1.1719-0.35156-5.8594-2.3438-2.9297-0.82031-1.0547-0.46875-1.9922-1.0547-3.0469-1.6406-1.875-1.0547-3.8672-2.2266-5.7422-3.2812-3.9844-2.2266-7.8516-4.6875-11.836-6.7969-18.398-9.7266-37.969-2.4609-48.047 15-5.5078 9.4922-11.016 19.102-16.523 28.594-4.1016 7.1484-8.6719 14.18-12.422 21.562-5.5078 11.133-5.0391 24.492 2.1094 34.688 4.5703 6.5625 10.781 10.195 17.461 14.062 3.9844 2.3438 8.0859 4.5703 12.07 6.9141 0.82031 0.58594 1.6406 1.0547 2.5781 1.6406 2.1094 1.4062-1.875-1.875-0.11719 0 1.2891 1.2891 2.5781 2.8125 3.9844 4.1016 1.7578 1.6406-1.1719-2.3438-0.23437-0.23438 0.35156 0.82031 1.0547 1.5234 1.4062 2.3438 0.46875 0.82031 0.82031 1.6406 1.2891 2.4609 1.0547 1.5234-0.82031-2.9297 0 0.23438 0.46875 1.7578 0.9375 3.3984 1.4062 5.1562 0.82031 3.1641 0 0 0-0.70312 0 0.9375 0.11719 1.7578 0.23438 2.6953 0.11719 1.7578-0.11719 3.5156-0.23438 5.3906 0.11719-3.75 0.35156-1.7578 0-0.70313-0.35156 1.2891-0.58594 2.5781-1.0547 3.8672-0.23437 0.82031-0.58594 1.6406-0.9375 2.5781 0.11719-0.35156 1.5234-2.5781 0.46875-1.0547-0.9375 1.2891-2.1094 3.3984-2.6953 4.8047-0.9375 2.1094 1.9922-1.875 0.23438-0.23438-0.70312 0.58594-1.2891 1.4062-1.875 2.1094-0.70312 0.70312-1.4062 1.2891-2.1094 1.9922-1.4062 1.2891 2.2266-1.2891-0.46875 0.35156-9.2578 5.625-20.625 10.195-28.125 18.164-8.6719 9.1406-11.484 22.969-7.1484 34.688 1.4062 3.75 3.2812 7.0312 5.2734 10.547 5.8594 10.195 11.836 20.508 17.695 30.703 4.5703 7.9688 8.9062 17.812 15.82 24.023 9.9609 8.7891 24.023 11.016 36.211 5.7422 4.8047-2.1094 9.375-5.0391 13.945-7.6172 2.1094-1.1719 4.2188-2.4609 6.4453-3.6328 0.35156-0.23437 0.70312-0.46875 1.0547-0.58594 0.9375-0.46875 1.875-0.9375 2.8125-1.5234-3.2812 1.6406 0.82031-0.23438 1.4062-0.46875 1.1719-0.35156 6.5625-1.2891 2.4609-0.82031 1.875-0.23438 3.75-0.23438 5.7422-0.23438 0.9375 0 1.875 0.11719 2.8125 0.23438-0.70312-0.11719-3.6328-0.82031-0.46875 0 0.9375 0.23438 1.7578 0.46875 2.6953 0.70312 0.46875 0.11719 4.2188 1.4062 1.875 0.46875-1.875-0.70312 2.8125 1.5234 3.5156 1.875 0.82031 0.46875 1.5234 1.0547 2.3438 1.5234 2.1094 1.0547-1.7578-1.9922-0.23438-0.23438 1.0547 1.1719 2.6953 2.9297 3.9844 3.9844 1.7578 1.4062-1.1719-2.3438-0.11719-0.23438 0.46875 1.0547 1.2891 1.9922 1.875 2.9297 0.46875 0.82031 0.9375 1.6406 1.2891 2.5781-0.35156-0.58594-1.0547-3.2812-0.11719-0.23438 0.58594 1.875 1.0547 3.75 1.5234 5.7422-0.82031-3.6328 0.11719 1.7578 0.11719 3.0469v1.5234c0.11719 15-1.875 30.703 9.4922 42.539 9.8438 10.43 22.617 10.547 35.625 10.547h36.211c13.242 0 25.781 0.11719 36.094-9.9609 11.719-11.484 9.9609-27.539 9.9609-42.422 0-1.9922 0.11719-4.1016 0.23438-6.0938 0-2.4609-0.9375 2.3438 0 0.23438 0.35156-0.82031 0.46875-1.9922 0.70312-2.9297 0.23438-0.9375 0.70313-1.875 0.9375-2.8125 0.46875-1.875-1.4062 2.2266 0.23438-0.35156 1.0547-1.6406 1.875-3.2812 3.0469-4.8047-2.2266 3.1641 0.9375-0.82031 1.875-1.7578 0.70313-0.58594 1.4062-1.1719 2.1094-1.875-2.4609 2.3438-1.0547 0.70312-0.23438 0.23438 1.9922-1.1719 3.9844-2.3438 6.0938-3.3984-3.5156 1.6406 1.1719-0.23438 2.3438-0.46875 0.9375-0.23438 1.875-0.35156 2.6953-0.58594-0.70312 0.11719-3.75 0.23438-0.46875 0.11719 1.6406 0 3.2812-0.11719 4.9219 0 0.58594 0 3.5156 0.58594 1.2891 0.11719-2.5781-0.58594 1.5234 0.46875 1.9922 0.58594 1.0547 0.23438 5.9766 2.4609 2.9297 0.82031 1.0547 0.58594 1.9922 1.0547 3.0469 1.6406 2.1094 1.1719 4.1016 2.3438 6.2109 3.6328 3.9844 2.3438 7.9688 4.8047 12.07 6.9141 11.25 5.8594 24.844 5.625 35.391-1.7578 8.9062-6.2109 13.594-16.641 18.867-25.781 5.9766-10.312 11.953-20.625 17.93-31.055 1.2891-2.3438 2.6953-4.5703 3.9844-6.9141 5.9766-11.953 4.8047-26.016-3.3984-36.562-6.7969-8.6719-18.164-13.477-27.422-18.867-8.2031-4.8047-19.219-1.875-24.023 6.3281-4.6875 7.3828-1.7578 18.516 6.4453 23.32z"/>
  <path d="m954.26 293.79c0 1.6406-0.11719 3.2812-0.23437 4.9219-0.11719 5.0391 0.9375-3.1641-0.23438 1.6406-0.58594 2.5781-1.1719 5.1562-1.875 7.6172 0-0.11719-1.6406 4.6875-0.70312 2.2266 0.9375-2.3438-1.0547 2.2266-1.0547 2.1094-1.4062 2.8125-3.0469 5.2734-4.6875 7.8516-2.5781 3.9844 2.3438-2.2266-1.0547 1.2891-0.70312 0.70313-1.2891 1.5234-1.9922 2.2266-1.0547 1.0547-2.1094 2.2266-3.2812 3.1641-0.35156 0.35156-4.3359 3.3984-1.1719 1.1719-1.9922 1.5234-4.2188 2.9297-6.4453 4.2188-1.1719 0.58594-2.2266 1.1719-3.3984 1.7578-0.70312 0.35156-1.4062 0.70312-2.1094 0.9375 1.7578-0.82031 1.7578-0.82031-0.11719-0.11719-2.5781 0.70312-4.9219 1.5234-7.5 2.1094-0.58594 0.11719-5.625 0.70313-1.6406 0.35156-1.0547 0.11719-2.1094 0.23438-3.2812 0.23438-3.2812 0.11719-6.5625 0.11719-9.7266-0.23438 0.70312 0.11719 3.2812 0.70312-0.11719 0-2.1094-0.46875-4.1016-0.82031-6.0938-1.4062-0.9375-0.35156-1.9922-0.70312-2.9297-0.9375-4.6875-1.2891 2.8125 1.6406-1.5234-0.58594-2.3438-1.1719-4.5703-2.3438-6.7969-3.6328-1.2891-0.82031-2.5781-1.6406-3.75-2.5781 2.5781 1.875 0.46875 0.35156 0-0.11719-2.4609-2.3438-4.8047-4.5703-6.9141-7.0312-1.875-2.2266 2.1094 3.3984-0.46875-0.70312-0.82031-1.2891-1.7578-2.5781-2.4609-3.8672-1.2891-2.2266-2.5781-4.4531-3.5156-6.7969 1.4062 3.2812-1.0547-3.5156-1.2891-4.5703-0.35156-1.5234-0.70312-3.0469-1.0547-4.5703-0.9375-3.9844-0.11719 2.1094-0.23438-1.6406-0.11719-3.0469-0.23437-5.9766 0-9.0234 0.11719-0.9375 0.58594-4.4531 0-0.9375 0.23438-1.5234 0.58594-3.1641 0.9375-4.6875 0.58594-2.5781 1.4062-5.0391 2.3438-7.5-1.2891 3.6328 0.46875-0.9375 0.70313-1.5234 0.70312-1.4062 1.4062-2.6953 2.2266-4.1016 0.58594-0.9375 4.8047-6.6797 2.5781-3.9844 1.9922-2.3438 3.9844-4.5703 6.3281-6.6797 0.70312-0.70312 1.5234-1.2891 2.3438-1.9922-2.9297 2.4609 0.9375-0.58594 1.4062-0.9375 2.5781-1.7578 5.2734-3.1641 7.9688-4.5703 4.3359-2.2266-1.9922 0.58594 0.82031-0.35156 1.2891-0.46875 2.4609-0.82031 3.75-1.1719 2.5781-0.70313 5.1562-1.2891 7.7344-1.7578-3.9844 0.58594 1.1719 0 1.7578 0 1.6406-0.11719 3.2812-0.11719 4.9219-0.11719 1.0547 0 2.1094 0.11719 3.2812 0.11719 2.1094 0.23438 2.1094 0.23438 0.11719-0.11719 1.0547 0.11719 2.1094 0.35156 3.1641 0.58594 3.0469 0.70312 6.0938 1.6406 9.0234 2.6953-3.0469-1.0547-0.58594-0.23438 0.11719 0 1.875 0.9375 3.6328 1.875 5.3906 2.9297 1.0547 0.70312 2.1094 1.4062 3.2812 2.1094 0.58594 0.46875 1.2891 0.82031 1.875 1.2891-1.5234-1.1719-1.5234-1.1719 0 0.11719 2.2266 2.1094 4.3359 4.2188 6.4453 6.4453 3.2812 3.5156-1.6406-2.6953 1.0547 1.2891 0.82031 1.2891 1.7578 2.5781 2.4609 3.8672 0.82031 1.2891 1.5234 2.6953 2.2266 4.1016 0.23438 0.46875 1.9922 4.9219 0.70312 1.5234 1.0547 2.9297 1.9922 5.9766 2.6953 9.0234 0.11719 0.58594 0.70313 5.625 0.35156 1.6406-0.58594 2.3438-0.46875 4.4531-0.35156 6.6797 0.11719 9.1406 7.9688 18.047 17.578 17.578 9.375-0.46875 17.695-7.7344 17.578-17.578-0.46875-33.633-21.328-62.695-52.734-74.531-29.766-11.25-66.328-1.4062-86.602 23.086-21.328 25.781-25.43 62.695-7.9688 91.875 17.344 29.062 51.094 43.242 84.023 37.148 36.68-6.7969 62.812-40.898 63.281-77.461 0.11719-9.1406-8.2031-18.047-17.578-17.578-9.7266 0.23438-17.461 7.5-17.578 17.461z"/>
  <path d="m761.95 804.49c-13.242 0-25.547 1.6406-37.617 7.2656-12.305 5.625-22.734 15.703-29.766 27.188-14.297 23.438-14.297 55.078 1.7578 77.695 3.75 5.1562 7.8516 9.7266 12.305 14.18l1.875 1.875c-1.7578-1.875 1.0547 1.7578 1.5234 2.5781 1.0547 1.6406 0.11719-0.11719 0-0.46875 0.35156 0.70312 0.58594 1.5234 0.82031 2.3438 0.23438 0.82031 0.46875 1.5234 0.58594 2.3438 0.9375 3.1641 0.11719-1.0547 0.11719 0.82031 0 0.70312-0.11719 4.9219 0.11719 3.2812 0.11719-1.6406-0.58594 2.3438-0.82031 3.1641-0.11719 0.46875-1.4062 3.5156-0.58594 1.6406 0.82031-1.7578-0.46875 0.70312-0.58594 0.82031-0.46875 0.70312-0.82031 1.4062-1.2891 2.1094-1.5234 2.2266 1.5234-1.5234-0.46875 0.35156-1.0547 1.0547-2.1094 2.1094-3.1641 3.1641-12.891 12.891-25.664 25.664-38.555 38.555-4.4531 4.4531-8.9062 8.9062-13.359 13.359-0.23438 0.23438-0.46875 0.46875-0.70312 0.70313-0.35156 0.35156-2.4609 2.2266-0.35156 0.58594-0.70312 0.46875-1.4062 0.9375-2.1094 1.4062-0.70313 0.46875-1.4062 0.82031-2.1094 1.1719 1.5234-0.82031 1.1719-0.35156-0.23437 0.11719-0.9375 0.23437-5.5078 1.1719-3.8672 1.0547 1.7578-0.11719-2.4609-0.11719-3.2812-0.11719-1.9922 0 0.35156 0.11719 0.70312 0.23437-1.0547-0.11719-2.1094-0.46875-3.1641-0.70312-0.82031-0.23438-1.5234-0.46875-2.3438-0.70313-2.4609-0.9375 1.9922 1.1719-0.23437-0.23437-0.82031-0.46875-4.4531-3.2812-2.5781-1.5234-0.70312-0.58594-1.2891-1.1719-1.875-1.875-1.5234-1.5234-3.0469-3.0469-4.5703-4.5703-5.2734-4.9219-11.25-9.4922-17.812-12.656-13.711-6.5625-28.008-8.5547-43.008-6.4453-27.305 3.8672-50.742 24.609-58.242 50.977-1.875 6.6797-2.6953 13.711-2.6953 20.625v5.3906c0 1.5234-0.82031 4.4531 0 1.6406-0.35156 1.0547-2.1094 6.2109-0.58594 3.0469-0.58594 1.4062-1.4062 2.6953-2.2266 3.9844-1.4062 2.5781 1.2891-0.82031-0.9375 1.1719-0.70313 0.58594-1.4062 1.4062-2.1094 2.1094 0.23438-0.23438 2.2266-1.5234 0.58594-0.46875-1.5234 0.9375-2.9297 1.875-4.5703 2.5781 3.3984-1.5234-1.6406 0.11719-2.3438 0.46875-1.5234 0.70313 0.11719 0 0.82031 0-0.82031 0.11719-1.6406 0.11719-2.3438 0.11719h-1.7578c-16.641 0.11719-33.398 0-50.039 0h-23.203-4.4531c-0.82031 0-1.6406-0.11719-2.3438-0.11719 3.3984 0.35156 0.82031 0.11719 0-0.11719-1.1719-0.35156-4.3359-1.5234-1.5234-0.23438-1.4062-0.58594-2.6953-1.4062-3.9844-2.2266-2.8125-1.5234-0.58594-0.46875 0 0-0.70312-0.70313-1.4062-1.4062-2.1094-2.1094-2.2266-1.875 0.46875 1.4062-0.9375-1.1719-0.35156-0.58594-2.4609-4.8047-1.875-3.2812 0.70312 1.6406-0.46875-2.4609-0.70313-3.0469-1.0547-2.1094-0.11719 2.4609-0.11719 0 0-0.82031-0.11719-1.6406-0.11719-2.5781-0.11719-5.9766-0.23438-11.719-1.0547-17.695-1.9922-13.828-8.4375-26.484-17.695-36.797-18.164-20.156-48.984-28.711-74.766-20.156-13.008 4.3359-23.086 11.953-32.695 21.445-0.35156 0.35156-2.4609 2.4609-1.4062 1.5234 0.70312-0.70312-2.2266 1.4062-3.0469 1.875-2.3438 1.4062 2.3438-0.70312-0.23438 0.23438-0.70312 0.23438-1.5234 0.58594-2.3438 0.70312-0.82031 0.23438-1.5234 0.35156-2.3438 0.58594-2.5781 0.58594 2.5781 0-0.11719 0-1.1719 0-5.7422-0.35156-2.4609 0.23437-1.6406-0.23437-3.1641-0.70312-4.6875-1.1719-0.82031-0.23438-2.6953-1.5234-0.23438-0.11719-0.70312-0.35156-1.4062-0.82031-2.1094-1.1719-0.70312-0.46875-1.4062-0.82031-2.1094-1.4062 1.5234 1.1719 0.35156 0.23438-0.35156-0.58594-9.7266-10.664-20.625-20.625-30.82-30.82l-24.844-24.844c-1.4062-1.4062-0.23438 0 0 0.35156-0.70312-0.82031-1.1719-1.875-1.7578-2.8125-0.11719-0.11719-1.4062-2.5781-0.58594-0.82031 0.70312 1.5234-0.46875-1.2891-0.58594-1.6406-0.23438-0.82031-0.9375-4.8047-0.82031-3.1641 0.11719 1.6406 0.11719-3.1641 0.11719-3.9844-0.11719 2.9297 0.11719-0.35156 0.46875-1.6406 0.23438-1.0547 0.58594-2.1094 1.0547-3.0469-0.70312 1.7578-0.35156 0.82031 0.35156-0.23437 0.46875-0.70313 2.9297-3.6328 1.1719-1.875 0.70312-0.70313 1.4062-1.5234 2.2266-2.2266 1.5234-1.6406 3.1641-3.1641 4.6875-4.8047 9.4922-10.312 16.406-23.086 18.516-37.031 4.3359-28.711-7.9688-57.305-32.461-73.242-11.602-7.6172-25.664-10.898-39.492-11.016h-5.0391c-1.0547 0-2.1094-0.11719-3.1641-0.11719 0.58594 0 2.3438 0.70312 0.82031 0-0.9375-0.46875-5.3906-1.875-2.3438-0.46875-1.6406-0.70313-3.0469-1.6406-4.5703-2.5781-1.6406-1.0547 0.35156 0.23438 0.58594 0.46875-0.58594-0.46875-1.0547-1.0547-1.6406-1.5234-0.58594-0.46875-1.0547-1.0547-1.5234-1.6406 2.1094 2.2266 0.46875 0.70312 0 0-0.35156-0.70312-0.82031-1.2891-1.1719-1.9922-0.23438-0.35156-1.4062-3.1641-0.70312-1.2891 0.58594 1.4062-0.58594-2.8125-0.9375-3.75 0.82031 2.8125 0-0.11719 0-1.6406v-1.0547-7.3828-27.539c0-14.531-0.23438-28.945 0-43.477 0.11719-3.1641-0.82031 1.4062 0.23438-1.5234 0.35156-0.9375 0.58594-1.9922 0.9375-2.9297-0.11719 0.23438-1.1719 2.4609-0.23438 0.70312 0.70312-1.2891 1.4062-2.5781 2.2266-3.8672 1.4062-2.2266-1.7578 1.875 0 0 0.70313-0.70312 1.4062-1.4062 2.1094-2.1094 1.2891-1.4062-0.35156 0.23437-0.70313 0.35156 0.58594-0.46875 1.2891-0.82031 1.875-1.2891 1.0547-0.58594 5.0391-2.2266 1.9922-1.1719 1.5234-0.46875 2.9297-0.82031 4.4531-1.1719-2.8125 0.82031 0.35156 0 1.875 0 13.477-0.23438 25.664-1.6406 37.969-7.5 24.609-11.719 40.547-39.258 39.727-66.328-0.35156-13.711-4.6875-27.656-12.773-38.906-3.6328-5.0391-7.7344-9.6094-12.188-13.945-0.70312-0.58594-2.3438-2.4609-0.9375-0.70312-1.0547-1.2891-1.7578-2.8125-2.5781-4.2188 1.4062 2.4609-0.46875-1.4062-0.82031-2.5781-0.23437-0.82031-0.35156-1.5234-0.46875-2.3438 0.35156 1.7578 0.11719 1.5234 0.11719-0.11719v-2.3438c0-2.6953-0.58594 2.5781 0-0.11719 0.35156-1.5234 0.70312-3.1641 1.2891-4.6875 0.70313-1.875 0 0.23438-0.11719 0.46875 0.58594-0.9375 1.0547-1.875 1.6406-2.8125 1.5234-2.4609-0.70312 0.35156 1.5234-1.6406 1.0547-0.9375 1.9922-1.9922 2.9297-2.9297 5.7422-5.7422 11.484-11.484 17.227-17.227 11.484-11.484 22.852-23.086 34.453-34.453 0.58594-0.58594 1.1719-1.1719 1.7578-1.6406-1.875 1.7578 1.0547-0.70312 1.875-1.1719 0.46875-0.35156 3.0469-1.5234 0.23438-0.35156 0.9375-0.46875 1.9922-0.70312 3.0469-1.0547 1.2891-0.35156 4.5703-0.58594 1.6406-0.46875 1.0547 0 2.1094 0 3.1641-0.11719 0.23438 0 2.9297 0.11719 0.82031 0-1.6406-0.11719 2.3438 0.58594 3.1641 0.82031 0.82031 0.23438 1.5234 0.46875 2.3438 0.82031-2.3438-0.9375-0.11719 0.11719 0.9375 0.82031 0.70312 0.46875 1.4062 0.82031 2.1094 1.4062-0.35156-0.23438-1.6406-1.4062-0.35156 0 0.58594 0.70312 1.2891 1.2891 1.9922 1.875 1.6406 1.6406 3.2812 3.2812 5.0391 4.9219 5.1562 4.6875 11.016 8.9062 17.344 11.953 26.602 12.539 57.305 7.7344 79.57-11.367 10.195-8.7891 17.695-21.211 21.211-34.102 1.7578-6.5625 2.5781-13.477 2.5781-20.273v-5.8594c0-0.82031 0.11719-1.6406 0.11719-2.3438-0.35156 3.3984-0.11719 0.82031 0.11719 0 0.23438-0.70312 0.46875-1.5234 0.70312-2.2266 0.58594-2.4609-1.1719 2.2266 0 0 0.82031-1.5234 1.6406-3.0469 2.6953-4.5703-1.7578 2.4609 0.46875-0.11719 1.1719-0.9375 1.875-2.2266-1.4062 0.46875 1.1719-0.9375 1.0547-0.58594 5.7422-2.5781 2.5781-1.5234 1.5234-0.46875 2.9297-0.82031 4.4531-1.1719-3.2812 0.9375 0.46875 0 1.6406 0h1.2891 20.156 53.438c1.875 0 3.6328 0.11719 5.5078 0.11719 1.9922 0-0.46875 0-0.82031-0.11719 0.70312 0.23438 1.5234 0.35156 2.2266 0.58594 0.70312 0.23438 1.5234 0.46875 2.2266 0.70313-2.9297-0.9375-0.82031-0.35156 0 0 1.2891 0.82031 2.5781 1.5234 3.8672 2.3438-2.6953-1.9922 1.1719 1.4062 1.9922 2.3438-1.9922-2.1094 0.11719 0.23437 0.70312 1.2891 0.70312 1.1719 1.6406 4.1016 0.82031 1.2891 0.23438 0.58594 1.4062 5.5078 1.1719 3.6328-0.35156-1.875 0.11719 1.9922 0.11719 2.6953 0.11719 6.2109 0.23438 12.07 1.1719 18.281 4.1016 27.539 26.25 50.391 53.086 57.188 27.07 6.7969 53.906-2.6953 72.656-22.852 0.23437-0.23438 0.58594-0.46875 0.82031-0.82031 1.9922-1.9922-1.875 1.1719 0.35156-0.46875 0.58594-0.46875 4.1016-2.4609 2.9297-1.875-1.1719 0.58594 2.4609-0.82031 3.1641-1.0547 0.46875-0.11719 3.75-0.58594 1.6406-0.35156-1.9922 0.23438 1.2891 0 1.6406 0 0.82031 0 1.6406 0 2.3438 0.11719-0.35156 0-2.6953-0.58594-0.70312-0.11719 1.875 0.35156 3.6328 0.82031 5.3906 1.5234-2.6953-1.1719 0.82031 0.70312 1.6406 1.1719 2.4609 1.5234-0.35156-0.70312 1.6406 1.5234 3.3984 3.6328 7.0312 7.0312 10.547 10.547l44.18 44.18c0.46875 0.46875 2.4609 2.4609 1.2891 1.1719-0.70313-0.70312 1.4062 2.2266 1.875 3.0469 1.0547 1.6406 0.11719-0.11719 0-0.46875 0.58594 1.1719 0.9375 2.5781 1.1719 3.8672 0.23438 0.82031 0.35156 1.5234 0.46875 2.3438-0.11719-0.35156-0.23437-2.6953-0.23437-0.70312 0 1.0547-0.46875 5.9766 0.23437 2.4609-0.23437 1.6406-0.70312 3.1641-1.1719 4.6875-0.11719 0.23438-1.1719 2.5781-0.35156 0.9375 0.82031-1.7578-1.5234 2.3438-1.4062 2.2266-1.5234 2.4609 0.70312-0.35156-1.5234 1.6406l-1.2891 1.2891c-1.6406 1.6406-3.2812 3.2812-4.9219 5.0391-20.273 22.5-24.258 53.555-11.484 80.742 11.836 25.43 38.438 39.844 65.859 39.961h6.2109c3.1641 0.11719-1.4062-0.82031 1.5234 0.23438 0.9375 0.35156 1.9922 0.58594 2.9297 0.9375-1.5234-0.46875-1.4062-0.82031 0 0 1.2891 0.82031 2.5781 1.5234 3.8672 2.3438-2.8125-2.1094 0.82031 1.0547 1.5234 1.7578 1.4062 1.2891-0.23438-0.35156-0.35156-0.70312 0.46875 0.58594 0.82031 1.2891 1.2891 1.875 0.35156 0.70312 0.70312 1.2891 1.1719 1.9922 2.2266 3.75-0.35156-1.6406 0.23438 0.70313 0.23437 0.70312 1.1719 4.8047 0.9375 2.9297-0.35156-2.2266 0.11719 2.3438 0.11719 2.4609v1.4062 7.5 56.836c0 4.3359 0.11719 8.6719 0 13.008 0 0.58594-0.46875 3.8672 0 1.6406 0.35156-2.1094-0.11719 0.46875-0.23438 0.70312-0.35156 1.1719-1.5234 4.3359-0.23438 1.5234-0.70312 1.6406-1.6406 3.0469-2.5781 4.5703-1.0547 1.6406 0.23438-0.35156 0.46875-0.58594-0.46875 0.58594-1.0547 1.0547-1.5234 1.6406s-1.0547 1.0547-1.6406 1.5234c2.2266-2.1094 0.70312-0.46875 0 0-1.2891 0.70312-2.5781 1.5234-3.9844 2.2266 3.0469-1.4062-1.4062 0-2.3438 0.46875-1.5234 0.82031 0.11719 0.11719 0.82031 0-2.1094-0.35156-3.1641-0.35156-4.2188-0.35156-9.1406 0.23437-18.047 7.9688-17.578 17.578 0.46875 9.375 7.7344 17.812 17.578 17.578 18.164-0.46875 35.742-10.195 44.062-26.602 4.5703-9.0234 5.7422-18.516 5.7422-28.477v-56.719c0-5.2734 0.11719-10.547 0-15.82-0.35156-17.461-9.0234-33.398-24.023-42.656-7.7344-4.8047-16.875-7.0312-25.898-7.1484h-5.625c-1.0547 0-2.1094 0-3.1641-0.11719-0.9375 0-1.875-0.23438-2.9297-0.23438 1.4062 0 2.5781 0.46875 0.46875 0-2.9297-0.58594-5.7422-1.2891-8.5547-2.2266-4.1016-1.4062 1.4062 0.9375-1.2891-0.46875-1.5234-0.82031-3.0469-1.6406-4.5703-2.4609-1.0547-0.70312-2.1094-1.4062-3.1641-2.1094 2.8125 1.875 0.35156 0.23438-0.9375-0.82031-0.9375-0.82031-1.875-1.7578-2.6953-2.6953-0.46875-0.46875-3.75-4.3359-2.3438-2.4609 1.5234 1.875-1.2891-1.875-1.5234-2.3438-0.70312-1.0547-1.2891-2.1094-1.875-3.2812-0.70312-1.2891-1.1719-2.6953-1.9922-3.8672-0.9375-1.6406 0.46875 1.1719 0.58594 1.2891-0.23437-0.82031-0.58594-1.5234-0.82031-2.3438-0.9375-2.8125-1.5234-5.625-2.1094-8.5547-0.70312-3.2812 0.11719 3.0469 0-0.35156 0-1.6406-0.23438-3.3984-0.11719-5.0391 0-1.2891 0.11719-2.5781 0.23437-3.75 0.11719-3.0469-0.82031 3.0469 0.23438-1.0547 0.70312-2.9297 1.6406-5.7422 2.5781-8.6719 0.70313-2.3438-1.5234 2.5781-0.23437 0.58594 0.35156-0.58594 0.58594-1.1719 0.9375-1.7578 0.58594-1.1719 1.2891-2.3438 1.9922-3.5156 0.35156-0.46875 3.0469-4.3359 1.875-2.8125-1.2891 1.6406 0.23438-0.23437 0.46875-0.46875 0.82031-0.9375 1.6406-1.7578 2.4609-2.6953 11.016-11.484 19.688-23.906 19.336-40.781-0.35156-13.711-6.2109-26.016-15.82-35.625-12.422-12.539-25.078-25.078-37.5-37.5-14.883-14.883-28.945-31.406-52.266-30.82-9.1406 0.23437-18.75 2.8125-26.25 8.0859-5.2734 3.6328-9.2578 7.9688-13.945 12.305-0.70312 0.70313-4.5703 3.5156-1.4062 1.4062-1.1719 0.82031-2.2266 1.6406-3.3984 2.3438-1.2891 0.82031-2.6953 1.5234-4.1016 2.3438-3.5156 1.875 1.4062-0.23437-1.2891 0.58594-2.9297 0.9375-5.7422 1.7578-8.7891 2.4609-3.2812 0.70312 3.0469-0.11719-0.35156 0.11719-1.6406 0.11719-3.3984 0.23438-5.0391 0.23438-1.2891 0-2.5781-0.11719-3.75-0.11719-3.1641 0 3.1641 0.70313-0.9375-0.11719-2.9297-0.58594-5.625-1.4062-8.4375-2.2266-3.8672-1.1719 1.7578 1.0547-1.0547-0.35156-1.1719-0.58594-2.2266-1.0547-3.3984-1.7578-1.2891-0.70313-2.5781-1.5234-3.75-2.2266-0.46875-0.35156-1.0547-0.70312-1.5234-1.0547-2.6953-1.7578 1.5234 1.5234 0.11719 0-1.875-1.9922-4.1016-3.6328-5.8594-5.7422-1.2891-1.4062-1.875-2.9297-0.46875-0.46875-0.9375-1.5234-1.9922-2.8125-2.8125-4.3359-0.70312-1.2891-1.2891-2.8125-2.1094-3.9844-1.0547-1.6406 0.35156 0.9375 0.46875 1.1719-0.23438-0.58594-0.46875-1.2891-0.70312-1.875-1.0547-3.2812-1.875-6.5625-2.4609-9.9609 0.58594 3.1641 0.11719 0.58594 0.11719-1.0547-0.11719-1.1719-0.11719-2.3438-0.11719-3.5156v-6.2109c-0.35156-8.9062-2.6953-18.047-7.6172-25.547-9.4922-14.531-25.078-22.969-42.305-23.32-15.82-0.35156-31.641 0-47.461 0-17.93 0-38.438-2.5781-54.727 6.4453-15.82 8.7891-24.961 25.781-25.312 43.594v5.625c0 1.2891-0.11719 2.5781-0.11719 3.75 0 0.58594-0.23438 3.6328 0 1.1719 0.23438-2.3438-0.11719 0.70312-0.23438 1.1719-0.58594 2.9297-1.4062 5.625-2.3438 8.5547-0.35156 0.9375-1.5234 2.6953 0.23438-0.58594-0.35156 0.58594-0.58594 1.1719-0.82031 1.7578-0.70313 1.2891-1.4062 2.6953-2.2266 3.9844-0.23438 0.46875-2.9297 4.4531-1.5234 2.4609s-1.5234 1.7578-1.875 2.1094c-0.82031 0.9375-1.7578 1.875-2.6953 2.6953-1.2891 1.1719-4.4531 3.3984-1.2891 1.2891-2.2266 1.5234-4.4531 3.0469-6.9141 4.3359-1.2891 0.70313-2.5781 1.2891-3.9844 1.875 3.1641-1.5234 0.58594-0.35156-1.0547 0.23438-2.5781 0.82031-5.2734 1.4062-7.9688 1.9922-3.0469 0.58594 3.2812-0.11719-0.9375 0-1.6406 0-3.3984 0.11719-5.0391 0.11719-1.2891 0-2.5781-0.23437-3.75-0.23437-2.4609 0 3.2812 0.82031 0.9375 0.11719-0.58594-0.11719-1.2891-0.23438-1.875-0.35156-2.9297-0.58594-5.8594-1.5234-8.6719-2.6953 3.2812 1.2891 0.11719 0-1.2891-0.82031-1.1719-0.70313-2.3438-1.2891-3.5156-2.1094-1.1719-0.82031-3.9844-3.1641-1.5234-0.9375-1.4062-1.2891-2.9297-2.5781-4.3359-3.8672-4.3359-4.2188-8.4375-8.4375-13.711-11.602-15.938-9.8438-38.086-9.4922-53.555 1.4062-5.625 3.9844-10.312 8.9062-15.117 13.711-6.9141 6.9141-13.828 13.828-20.625 20.625-6.6797 6.6797-13.242 13.242-19.922 19.922-5.1562 5.1562-10.43 10.078-14.297 16.289-9.8438 16.055-9.4922 38.086 1.4062 53.555 3.6328 5.1562 8.0859 9.1406 12.305 13.711 0.9375 1.0547 2.5781 3.3984 0.82031 0.82031 0.9375 1.2891 1.875 2.6953 2.6953 3.9844 0.82031 1.4062 1.5234 2.8125 2.2266 4.1016 1.4062 2.5781-0.70312-2.4609 0.58594 1.2891 0.9375 2.6953 1.5234 5.3906 2.2266 8.0859 0.70312 3.0469-0.11719-3.1641 0.11719 1.0547 0.11719 1.6406 0.11719 3.3984 0.11719 5.0391 0 1.2891-0.23438 2.5781-0.23438 3.75 0.11719 1.9922 0.23438-1.4062 0.23438-1.5234-0.11719 0.82031-0.23438 1.6406-0.46875 2.4609-0.58594 2.9297-1.5234 5.625-2.3438 8.4375-0.9375 2.9297 1.5234-2.9297-0.46875 1.0547-0.58594 1.1719-1.1719 2.2266-1.7578 3.2812-0.70312 1.2891-1.5234 2.5781-2.3438 3.75-0.35156 0.46875-0.70312 1.0547-1.0547 1.5234-1.1719 1.875 2.1094-2.1094 0.46875-0.58594-2.1094 1.9922-3.9844 4.3359-6.2109 6.3281-0.46875 0.46875-0.9375 0.82031-1.5234 1.1719 0.23438-0.23438 2.5781-1.5234 1.0547-0.82031-1.5234 0.70312-2.9297 1.875-4.3359 2.8125-1.2891 0.70312-2.6953 1.4062-4.1016 2.1094 2.5781-1.4062 0.9375-0.35156-0.70313 0.23438-3.0469 1.0547-6.0938 1.7578-9.2578 2.2266 3.6328-0.58594-0.23438-0.11719-1.7578 0h-3.1641c-2.2266 0-4.4531-0.11719-6.6797 0-18.047 0.9375-35.391 11.25-43.125 28.008-7.5 16.289-5.0391 36.211-5.0391 53.672 0 15.234-0.35156 30.586 0 45.938 0.35156 17.695 9.6094 34.688 25.312 43.359 7.6172 4.2188 15.938 6.2109 24.727 6.4453h5.7422c1.4062 0 2.9297 0.11719 4.3359 0.11719 0.35156 0 2.8125 0.23438 0.46875 0-2.5781-0.23437 1.2891 0.23438 1.7578 0.35156 2.9297 0.58594 5.625 1.6406 8.4375 2.4609 1.875 0.46875-0.9375-0.35156-1.1719-0.46875 0.82031 0.46875 1.5234 0.70313 2.3438 1.1719 1.2891 0.70312 2.6953 1.4062 3.8672 2.2266 1.5234 0.9375 3.75 2.8125 1.1719 0.58594 0.9375 0.82031 1.9922 1.6406 2.9297 2.4609 1.0547 1.0547 2.1094 1.9922 3.1641 3.1641 0.46875 0.46875 0.82031 0.9375 1.2891 1.4062 2.2266 2.3438-1.0547-1.875 0-0.11719 1.4062 2.3438 3.0469 4.4531 4.3359 6.9141 0.58594 1.0547 1.0547 2.2266 1.6406 3.3984-1.9922-4.1016 0.11719 0.46875 0.46875 1.6406 0.82031 2.5781 1.2891 5.2734 1.875 7.9688 0.58594 2.3438-0.11719-3.3984-0.11719-0.9375 0 0.58594 0.11719 1.2891 0.11719 1.875 0.11719 1.6406 0.11719 3.3984 0 5.0391 0 1.2891-0.23438 2.5781-0.23438 3.75 0.23438-3.5156 0.11719-1.0547-0.35156 1.0547-0.23438 1.2891-0.58594 2.4609-0.9375 3.75-0.23438 0.82031-0.58594 1.6406-0.82031 2.4609-0.11719 0.46875-1.2891 3.1641-0.35156 0.9375 0.9375-2.2266-1.1719 2.2266-1.5234 2.6953-0.70313 1.1719-1.4062 2.3438-2.1094 3.5156-0.46875 0.82031-1.0547 1.5234-1.6406 2.2266 0.11719-0.23437 1.9922-2.1094 0.58594-0.82031-1.1719 1.1719-2.2266 2.5781-3.3984 3.75-11.133 11.367-19.57 24.375-18.75 41.016 0.70312 13.711 6.4453 25.547 16.055 35.156l15.938 15.938c12.305 12.305 24.492 24.609 36.797 36.797 10.195 9.9609 24.023 16.406 38.438 15.352 9.2578-0.58594 18.516-3.3984 26.016-8.9062 4.8047-3.5156 8.6719-7.7344 13.125-11.719 0.70312-0.70312 1.5234-1.2891 2.2266-1.875-0.23438 0.23438-2.3438 1.5234-0.70313 0.58594 1.4062-0.70312 2.6953-1.875 3.9844-2.6953 1.1719-0.70313 2.3438-1.2891 3.5156-1.875 0.82031-0.46875 3.0469-1.1719-0.58594 0.11719 0.82031-0.35156 1.6406-0.58594 2.4609-0.9375 2.6953-0.9375 5.3906-1.2891 8.0859-2.1094 1.875-0.58594-1.4062 0.11719-1.5234 0.11719 0.82031 0 1.6406-0.11719 2.5781-0.23438 1.5234-0.11719 2.9297-0.11719 4.4531-0.11719 1.5234 0 2.9297 0.23438 4.4531 0.23438-3.2812 0-1.2891-0.23438 0.9375 0.23438 2.8125 0.58594 5.625 1.875 8.4375 2.4609 1.7578 0.35156-1.0547-0.46875-1.2891-0.58594 0.58594 0.23438 1.1719 0.46875 1.7578 0.82031 1.2891 0.70312 2.5781 1.2891 3.8672 2.1094 1.2891 0.70313 2.4609 1.5234 3.75 2.3438 3.2812 2.2266-1.1719-1.2891 0.9375 0.70313 1.9922 1.875 3.9844 3.75 5.8594 5.8594 2.8125 3.1641-0.82031-1.6406 0.70312 0.9375 0.9375 1.5234 1.875 2.9297 2.6953 4.3359 0.58594 1.1719 1.1719 2.3438 1.7578 3.5156-1.5234-3.1641-0.11719-0.11719 0.35156 1.4062 0.46875 1.2891 0.82031 2.5781 1.0547 3.8672 0.23438 0.9375 0.35156 1.7578 0.58594 2.6953 0.11719 0.46875 0.46875 3.5156 0.23437 1.1719-0.23437-2.1094 0.11719 2.4609 0.11719 3.3984v2.4609c0 2.4609-0.11719 4.9219 0.11719 7.3828 0.70312 8.9062 3.1641 17.812 8.3203 25.195 9.7266 13.828 24.609 21.797 41.602 22.148 5.8594 0.11719 11.719 0 17.578 0h55.898c10.312 0 20.273-1.5234 29.297-6.7969 15.586-9.1406 24.375-25.781 24.609-43.594v-5.3906c0-1.6406 0.35156-3.3984 0.23438-5.0391-0.11719-1.9922-0.11719 0.82031-0.23438 1.1719 0.23438-1.1719 0.35156-2.2266 0.58594-3.3984 0.58594-2.9297 1.5234-5.625 2.5781-8.4375-0.9375 2.8125-0.35156 0.9375 0.35156-0.58594 0.82031-1.5234 1.6406-3.0469 2.5781-4.4531 0.35156-0.46875 0.82031-1.0547 1.0547-1.6406 1.0547-2.1094-2.1094 2.2266-0.46875 0.46875 0.82031-0.9375 1.6406-1.9922 2.4609-2.8125 1.0547-1.0547 2.1094-2.1094 3.1641-3.0469 0.46875-0.46875 1.0547-0.82031 1.4062-1.2891 1.5234-1.6406-3.3984 2.2266-0.11719 0 2.3438-1.5234 4.5703-2.9297 7.0312-4.2188 0.58594-0.35156 4.2188-1.875 1.875-0.9375-2.2266 0.9375 2.3438-0.82031 3.1641-1.0547 2.5781-0.82031 5.2734-1.2891 7.9688-1.7578-3.3984 0.58594-1.1719 0.23437 0.9375 0.11719 1.5234-0.11719 2.9297-0.11719 4.4531 0 0.58594 0 5.3906 0.58594 2.6953 0.11719s2.1094 0.46875 2.6953 0.58594c1.2891 0.35156 2.4609 0.58594 3.75 1.0547 1.4062 0.46875 5.2734 2.3438 1.9922 0.58594 2.6953 1.2891 5.1562 2.6953 7.6172 4.3359 0.58594 0.35156 1.1719 0.82031 1.7578 1.1719-0.58594-0.46875-2.5781-2.3438-0.23438-0.11719 1.0547 1.0547 2.2266 1.9922 3.2812 3.0469 4.6875 4.5703 9.2578 9.2578 15 12.422 16.641 9.1406 38.086 8.3203 53.438-3.1641 5.1562-3.8672 9.4922-8.4375 14.062-13.008l40.781-40.781c5.2734-5.2734 10.898-10.43 14.531-17.227 9.1406-16.641 8.3203-38.086-3.1641-53.438-3.5156-4.6875-7.7344-8.6719-11.719-13.008-2.9297-3.1641 0.35156 1.0547-1.1719-1.4062-0.70312-1.1719-1.5234-2.3438-2.2266-3.5156-0.82031-1.2891-1.4062-2.9297-2.2266-4.2188-1.0547-1.5234 0.35156 0.9375 0.46875 1.1719-0.35156-1.0547-0.82031-1.9922-1.1719-3.0469-0.9375-2.6953-1.4062-5.3906-1.9922-8.0859 0.70312 2.8125 0.23438 1.7578 0.11719-0.35156-0.11719-1.6406-0.11719-3.3984-0.11719-5.0391 0-0.9375 0-5.2734 0.11719-2.6953 0.11719 2.4609 0.23438-1.1719 0.35156-1.9922 0.58594-3.1641 1.7578-5.9766 2.6953-9.0234-0.82031 2.6953-0.58594 1.4062 0.23437-0.35156 0.70313-1.2891 1.4062-2.5781 2.1094-3.8672 0.70312-1.0547 1.2891-2.1094 1.9922-3.1641 2.3438-3.6328-1.4062 1.2891 0.70312-0.9375 1.875-1.9922 3.75-3.9844 5.8594-5.8594 2.9297-2.6953-1.6406 0.82031 0.9375-0.70313 1.0547-0.70312 2.1094-1.4062 3.2812-2.1094 1.2891-0.70313 2.8125-1.2891 3.9844-2.1094 1.5234-1.0547-0.9375 0.35156-1.1719 0.46875 0.82031-0.35156 1.6406-0.58594 2.4609-0.9375 2.8125-0.9375 5.7422-1.4062 8.5547-2.1094 1.9922-0.46875-0.9375 0.11719-1.1719 0.11719 0.70312 0 1.4062-0.11719 2.1094-0.11719 1.2891 0 2.5781-0.11719 3.8672-0.11719h5.7422c9.1406 0 18.047-8.0859 17.578-17.578-0.46875-9.375-7.7344-17.461-17.578-17.461z"/>
  <path d="m570.82 750.94c0 3.2812-0.11719 6.5625-0.35156 9.8438-0.11719 1.6406-0.23438 3.2812-0.46875 4.8047 0 0.23437-0.35156 2.9297-0.11719 0.82031 0.23438-1.9922-0.23437 1.2891-0.23437 1.6406-1.0547 6.7969-2.6953 13.477-4.8047 19.922-0.9375 2.9297-2.1094 5.8594-3.1641 8.7891-0.70313 1.875 0.11719-0.35156 0.23437-0.58594-0.35156 0.70312-0.58594 1.4062-0.9375 2.1094-0.82031 1.6406-1.5234 3.2812-2.3438 4.9219-2.9297 5.7422-6.2109 11.25-9.8438 16.523-1.0547 1.4062-2.1094 2.9297-3.1641 4.3359 1.7578-2.3438-0.35156 0.35156-1.0547 1.2891-2.1094 2.5781-4.3359 5.0391-6.6797 7.3828-2.1094 2.2266-4.3359 4.3359-6.5625 6.3281-1.1719 1.0547-2.3438 1.9922-3.3984 3.0469-0.82031 0.70312-4.3359 3.5156-1.7578 1.5234-5.2734 4.1016-10.898 7.7344-16.758 10.898-2.6953 1.5234-5.5078 2.9297-8.3203 4.2188-1.0547 0.46875-4.2188 1.875-1.5234 0.70312-1.6406 0.70312-3.3984 1.2891-5.0391 1.9922-6.2109 2.2266-12.539 3.9844-18.867 5.3906-1.5234 0.35156-3.1641 0.58594-4.6875 0.82031-1.1719 0.23438-4.8047 0.58594-1.6406 0.23438-3.75 0.46875-7.5 0.70312-11.367 0.82031-6.7969 0.23437-13.594-0.11719-20.391-0.82031-2.1094-0.23438 0.35156 0.11719 0.70312 0.11719-0.82031-0.11719-1.6406-0.23437-2.3438-0.35156-1.5234-0.23438-3.1641-0.58594-4.6875-0.82031-3.3984-0.70313-6.6797-1.4062-9.9609-2.3438s-6.4453-1.9922-9.7266-3.1641c-1.4062-0.58594-2.9297-1.0547-4.3359-1.6406-1.875-0.70312 0.35156 0.11719 0.58594 0.23438-0.9375-0.46875-1.875-0.82031-2.8125-1.2891-5.8594-2.6953-11.484-5.8594-16.875-9.375-2.5781-1.6406-5.0391-3.3984-7.5-5.2734-1.6406-1.1719 0.35156 0.23438 0.58594 0.35156-0.58594-0.46875-1.1719-0.9375-1.7578-1.4062-1.4062-1.1719-2.6953-2.3438-4.1016-3.5156-4.9219-4.4531-9.6094-9.1406-13.828-14.297-0.70313-0.82031-2.9297-3.6328-1.0547-1.2891-0.9375-1.1719-1.875-2.4609-2.6953-3.75-1.875-2.6953-3.75-5.5078-5.5078-8.3203-1.6406-2.6953-3.0469-5.2734-4.4531-8.0859-0.82031-1.6406-1.6406-3.2812-2.3438-4.8047-0.35156-0.70313-0.58594-1.4062-0.9375-2.1094-1.1719-2.4609 0.9375 2.4609 0-0.11719-2.3438-6.0938-4.4531-12.305-5.9766-18.633-0.70313-3.0469-1.4062-6.2109-1.875-9.375-0.23438-1.1719-0.58594-4.8047-0.23438-1.6406-0.23437-1.875-0.35156-3.75-0.58594-5.625-0.58594-7.0312-0.58594-14.18 0-21.211 0.11719-1.6406 0.35156-3.1641 0.46875-4.8047 0.23438-2.1094-0.11719 0.35156-0.11719 0.70313 0.11719-0.82031 0.23437-1.6406 0.35156-2.3438 0.58594-3.3984 1.1719-6.7969 1.9922-10.078 1.5234-6.3281 3.6328-12.539 5.9766-18.633 0.70312-1.875-0.11719 0.35156-0.23438 0.58594 0.46875-0.9375 0.82031-1.875 1.2891-2.8125 0.70312-1.4062 1.2891-2.8125 1.9922-4.2188 1.5234-2.9297 3.1641-5.8594 4.8047-8.7891 1.6406-2.5781 3.2812-5.1562 5.0391-7.7344 0.9375-1.2891 1.7578-2.4609 2.6953-3.75 1.1719-1.6406-0.23438 0.35156-0.35156 0.58594 0.58594-0.82031 1.2891-1.6406 1.9922-2.3438 4.2188-5.0391 8.9062-9.8438 13.828-14.297 1.1719-1.0547 2.3438-1.9922 3.5156-3.0469 0.82031-0.70313 3.6328-2.9297 1.2891-1.0547 2.5781-1.9922 5.3906-3.9844 8.2031-5.7422 5.3906-3.5156 11.016-6.6797 16.875-9.375 1.0547-0.46875 4.2188-1.875 1.5234-0.70312 1.4062-0.58594 2.9297-1.1719 4.3359-1.6406 3.3984-1.2891 6.9141-2.3438 10.43-3.3984 3.0469-0.82031 6.0938-1.6406 9.2578-2.2266 1.5234-0.35156 3.1641-0.58594 4.6875-0.82031 0.82031-0.11719 1.5234-0.23438 2.3438-0.35156 2.8125-0.46875-2.6953 0.23437 0.11719 0 6.7969-0.70313 13.594-1.0547 20.391-0.82031 3.5156 0.11719 7.0312 0.46875 10.547 0.82031 2.1094 0.23437-0.35156-0.11719-0.70312-0.11719 0.82031 0.11719 1.6406 0.23438 2.3438 0.35156 1.875 0.35156 3.6328 0.58594 5.5078 1.0547 6.4453 1.2891 12.773 3.0469 18.867 5.3906 1.4062 0.58594 2.9297 1.0547 4.3359 1.6406 1.875 0.70312-0.35156-0.11719-0.58594-0.23438 0.70312 0.35156 1.4062 0.58594 2.1094 0.9375 3.0469 1.4062 5.9766 2.9297 9.0234 4.4531 5.8594 3.1641 11.484 6.7969 16.758 10.898-2.3438-1.7578 0.35156 0.35156 1.2891 1.0547 1.1719 0.9375 2.3438 1.9922 3.5156 3.0469 2.4609 2.2266 4.8047 4.4531 7.1484 6.9141 2.1094 2.2266 4.2188 4.4531 6.2109 6.7969 0.46875 0.58594 3.0469 3.6328 1.9922 2.3438-1.1719-1.5234 0.35156 0.46875 0.46875 0.70312 0.70313 1.0547 1.5234 2.1094 2.2266 3.1641 3.6328 5.2734 7.0312 10.781 9.8438 16.523 0.70312 1.4062 1.4062 2.8125 1.9922 4.2188 0.46875 1.0547 1.875 4.2188 0.70313 1.5234 1.2891 3.1641 2.4609 6.3281 3.5156 9.4922 2.1094 6.5625 3.75 13.242 4.8047 19.922 0.11719 0.82031 0.23438 1.5234 0.35156 2.3438 0-0.23437-0.35156-2.8125-0.11719-0.70312 0.11719 1.6406 0.35156 3.1641 0.46875 4.8047-0.46875 3.5156-0.35156 7.0312-0.35156 10.547 0 9.1406 8.0859 18.047 17.578 17.578 9.4922-0.46875 17.695-7.7344 17.578-17.578-0.35156-64.453-41.133-121.76-101.37-144.02-58.711-21.68-128.67-2.8125-168.52 45.469-41.133 49.805-47.93 121.52-14.297 177.3 33.516 55.547 99.141 83.555 162.42 71.016 60.352-11.953 110.04-63.164 119.53-124.1 1.2891-8.5547 2.2266-17.109 2.2266-25.664 0-9.1406-8.0859-18.047-17.578-17.578-9.6094 0.46875-17.461 7.7344-17.578 17.578z"/>
 </g>
</svg>
