<?xml version="1.0" encoding="UTF-8"?>
<svg width="1200pt" height="1200pt" version="1.1" viewBox="0 0 1200 1200" xmlns="http://www.w3.org/2000/svg">
 <path d="m1037.1 300c1.582 3.0586 3.9805 5.6211 6.9219 7.4062 2.9453 1.7852 6.3242 2.7266 9.7656 2.7188 6.5742-0.015625 12.66-3.4766 16.039-9.1211 3.375-5.6406 3.5508-12.637 0.46094-18.441l-51.562-99c-2.3125-4.3008-6.2109-7.5312-10.871-9.0039-4.6562-1.4688-9.7031-1.0664-14.066 1.1289-4.3516 2.3125-7.6172 6.2461-9.0898 10.949-1.4727 4.6992-1.0391 9.793 1.2148 14.176l16.688 32.25-123.19 45.375c-33.176-77.32-94.148-139.38-170.87-173.91s-163.61-39.023-243.48-12.586c-79.875 26.434-146.93 81.875-187.89 155.36-40.973 73.484-52.883 159.67-33.379 241.51l-67.875 23.25 20.812-63.938c1.7617-4.7812 1.5-10.07-0.72266-14.656s-6.2109-8.0664-11.055-9.6484c-4.8438-1.582-10.121-1.1211-14.621 1.2695-4.4961 2.3906-7.8281 6.5117-9.2266 11.41l-32.625 99.75v1.6875c-0.19141 1.6211-0.19141 3.2539 0 4.875-0.089844 0.55859-0.089844 1.1289 0 1.6875 0.32031 2.1094 1.0195 4.1406 2.0625 6l2.625 3.5625h1.125l78.75 59.25c3.2461 2.4336 7.1914 3.75 11.25 3.75 5.2148-0.066406 10.168-2.3047 13.668-6.1758 3.4961-3.8711 5.2227-9.0234 4.7656-14.223-0.45703-5.1953-3.0625-9.9648-7.1836-13.164l-50.438-37.5 69-21c19.574 54.387 52.906 102.77 96.75 140.44 28.09 24.828 50.863 55.09 66.941 88.957 16.082 33.871 25.137 70.645 26.621 108.11-9.8906 2.7383-18.617 8.6367-24.844 16.797-6.2305 8.1562-9.6211 18.129-9.6562 28.391v80.062c0.050781 37.031 14.781 72.535 40.969 98.719 26.184 26.188 61.688 40.918 98.719 40.969h34.125c32.715-0.054688 64.375-11.586 89.457-32.594 25.082-21.004 41.996-50.145 47.793-82.344 0.089844-0.93359 0.089844-1.8789 0-2.8125 1.1992-7.2539 1.8242-14.586 1.875-21.938v-81c-0.027344-9.1133-2.6992-18.02-7.6953-25.641-4.9922-7.6211-12.09-13.629-20.43-17.297 1.293-37.762 10.273-74.863 26.395-109.04 16.117-34.176 39.039-64.699 67.355-89.715 36.785-31.566 66.301-70.715 86.531-114.77 20.227-44.047 30.684-91.949 30.656-140.42-0.054688-32.57-4.793-64.965-14.062-96.188l127.5-47.25zm-662.06 337.5c-45.57-39.156-78.285-91.137-93.867-149.16-15.586-58.023-13.32-119.4 6.5-176.12 19.82-56.719 56.273-106.15 104.61-141.84 48.332-35.691 106.3-55.984 166.34-58.234 60.043-2.25 119.37 13.648 170.24 45.621 50.867 31.973 90.918 78.531 114.93 133.61l-71.438 27.375c-21.457-44.051-56.449-80.082-99.855-102.81-43.41-22.73-92.953-30.973-141.38-23.52-48.43 7.4531-93.203 30.211-127.77 64.945s-57.102 79.617-64.32 128.08c-7.2148 48.465 1.2695 97.969 24.211 141.27 22.945 43.293 59.145 78.109 103.3 99.352l81.375 117v116.62h-65.625c-2.0039-42.348-12.539-83.852-30.969-122.03-18.426-38.18-44.371-72.242-76.281-100.16zm191.62-281.25c-18.359-0.76562-36.211 6.1328-49.285 19.047-13.07 12.914-20.184 30.684-19.637 49.051 0.54688 18.367 8.7031 35.684 22.52 47.797s32.047 17.941 50.328 16.082c18.281-1.8555 34.969-11.23 46.066-25.879 11.098-14.645 15.605-33.246 12.445-51.348l38.625-14.25c1.7383 7.5 2.6172 15.176 2.625 22.875 0.074219 33.512-16.023 65-43.23 84.566s-62.18 24.801-93.926 14.066c-31.746-10.738-56.359-36.133-66.105-68.195-9.7422-32.062-3.4219-66.859 16.98-93.445 20.402-26.586 52.375-41.695 85.867-40.578 33.496 1.1172 64.391 18.324 82.977 46.211l-39.75 14.625c-11.941-13.066-28.801-20.547-46.5-20.625zm25.875 63.375c0 6.8633-2.7266 13.445-7.5781 18.297s-11.434 7.5781-18.297 7.5781-13.445-2.7266-18.297-7.5781-7.5781-11.434-7.5781-18.297 2.7266-13.445 7.5781-18.297 11.434-7.5781 18.297-7.5781 13.445 2.7266 18.297 7.5781 7.5781 11.434 7.5781 18.297zm-25.875-141.19c-39.91-0.26172-78.09 16.27-105.21 45.555-27.117 29.281-40.676 68.617-37.355 108.39 3.3203 39.773 23.211 76.316 54.805 100.7 31.598 24.383 71.992 34.355 111.3 27.484 39.312-6.875 73.926-29.961 95.375-63.617 21.453-33.656 27.762-74.781 17.391-113.32l48.188-17.812c5.0586 17.492 7.6445 35.605 7.6875 53.812 0.042969 47.039-17.152 92.465-48.332 127.68-31.184 35.223-74.184 57.797-120.88 63.461-46.695 5.6641-93.852-5.9805-132.55-32.727-38.691-26.746-66.246-66.742-77.453-112.43-11.203-45.684-5.2812-93.891 16.648-135.51 21.93-41.613 58.348-73.75 102.37-90.336 44.02-16.582 92.59-16.465 136.52 0.33203 43.938 16.801 80.199 49.113 101.93 90.836l-48.562 18.75c-12.246-21.551-29.965-39.492-51.363-52-21.398-12.512-45.723-19.152-70.512-19.25zm-119.25 708.38v-18.75h238.5v18.75 3.5625h-238.31c0-1.125-0.1875-2.25-0.1875-3.5625zm228.94-89.625c5.2812 0 9.5625 4.2812 9.5625 9.5625v23.438h-238.5v-23.438c0-2.5703 1.0312-5.0312 2.8672-6.8281 1.832-1.8008 4.3125-2.7852 6.8828-2.7344zm-108.75-191.62-42.562-60c13.496 2.3984 27.168 3.6523 40.875 3.75 16.453-0.027344 32.855-1.7891 48.938-5.25zm16.125 383.44h-34.125c-19.883 0.058594-39.352-5.6953-56.008-16.555-16.656-10.863-29.773-26.352-37.742-44.57h221.44c-7.9961 18.16-21.094 33.605-37.703 44.457-16.613 10.852-36.02 16.641-55.859 16.668zm285-679.12c0.16797 43.23-9.0703 85.98-27.074 125.29-18 39.305-44.336 74.227-77.176 102.34-31.938 28.023-57.871 62.223-76.238 100.54-18.367 38.312-28.789 79.949-30.637 122.4h-72.188v-116.81l99-127.12c34.195-20.266 62.543-49.062 82.262-83.574 19.723-34.512 30.141-73.551 30.238-113.3 0.082031-22.688-3.2695-45.254-9.9375-66.938l70.312-25.875c7.7422 27.004 11.594 54.973 11.438 83.062z"/>
</svg>
