<?xml version="1.0" encoding="utf-8"?>
<!-- Generator: Adobe Illustrator 27.4.1, SVG Export Plug-In . SVG Version: 6.00 Build 0)  -->
<svg version="1.1" id="Layer_1" xmlns="http://www.w3.org/2000/svg" xmlns:xlink="http://www.w3.org/1999/xlink" x="0px" y="0px"
	 viewBox="0 0 102 105.3" style="enable-background:new 0 0 102 105.3;" xml:space="preserve">
<style type="text/css">
	.st0{fill:#282526;}
	.st1{font-family:'TenorSans';}
	.st2{font-size:22.67px;}
	.st3{fill:none;stroke:#282526;stroke-width:0.9;stroke-miterlimit:10;}
</style>
<path class="st0" d="M50.8,102.2c-26.5,0-48-22.2-48-49.6S24.3,3,50.8,3s48,22.2,48,49.6S77.3,102.2,50.8,102.2L50.8,102.2z
	 M50.8,3.8C24.7,3.8,3.5,25.7,3.5,52.6s21.2,48.9,47.3,48.9s47.3-21.9,47.3-48.9S76.8,3.8,50.8,3.8L50.8,3.8z"/>
<text transform="matrix(1 0 0 1 43.5348 42.449)" class="st0 st1 st2">Y</text>
<text transform="matrix(1 0 0 1 43.5348 76.439)" class="st0 st1 st2">K</text>
<line class="st3" x1="39.8" y1="51.2" x2="61.8" y2="51.2"/>
</svg>
