<svg width="194" height="29" viewBox="0 0 194 29" fill="none" xmlns="http://www.w3.org/2000/svg">
<path d="M0.107422 23H8.03223C14.3604 23 17.9785 19.1182 17.9785 12.3506V12.3213C17.9785 5.7002 14.3164 1.8623 8.03223 1.8623H0.107422V23ZM3.88672 19.8213V5.04102H7.53418C11.6797 5.04102 14.126 7.73633 14.126 12.3799V12.4092C14.126 17.1553 11.7383 19.8213 7.53418 19.8213H3.88672ZM32.0891 23.3223C36.4396 23.3223 38.5783 20.8174 39.091 18.752L39.135 18.6201H35.6633L35.6193 18.7227C35.2678 19.4551 34.1398 20.4512 32.1623 20.4512C29.6867 20.4512 28.134 18.7812 28.09 15.9102H39.2814V14.709C39.2814 9.875 36.4689 6.68164 31.9133 6.68164C27.3576 6.68164 24.4426 9.97754 24.4426 15.0166V15.0312C24.4426 20.1289 27.3283 23.3223 32.0891 23.3223ZM31.9572 9.53809C33.9934 9.53809 35.4729 10.8418 35.7219 13.4639H28.1193C28.3977 10.915 29.9211 9.53809 31.9572 9.53809ZM52.2787 23.3223C56.2191 23.3223 59.0756 21.2861 59.0756 18.2393V18.21C59.0756 15.8809 57.5961 14.5479 54.4613 13.8447L51.8686 13.2734C50.14 12.8779 49.4662 12.3066 49.4662 11.3691V11.3545C49.4662 10.1533 50.6381 9.3623 52.2641 9.3623C53.9779 9.3623 55.0326 10.1826 55.2963 11.1934L55.3109 11.2373H58.7387V11.208C58.5043 8.61523 56.1752 6.68164 52.2787 6.68164C48.4994 6.68164 45.8627 8.67383 45.8627 11.5596V11.5742C45.8627 13.9326 47.3129 15.3682 50.3598 16.042L52.9525 16.6279C54.7104 17.0234 55.4135 17.6387 55.4135 18.5762V18.6055C55.4135 19.8066 54.1537 20.627 52.3373 20.627C50.5209 20.627 49.4516 19.8506 49.0707 18.7373L49.0561 18.708H45.4379V18.7373C45.7455 21.4473 48.2064 23.3223 52.2787 23.3223ZM67.9273 4.30859C69.1139 4.30859 70.0953 3.35645 70.0953 2.15527C70.0953 0.96875 69.1139 0.00195312 67.9273 0.00195312C66.7262 0.00195312 65.7447 0.96875 65.7447 2.15527C65.7447 3.35645 66.7262 4.30859 67.9273 4.30859ZM66.0963 23H69.7438V6.98926H66.0963V23ZM84.4109 28.625C89.0838 28.625 92.0428 26.2959 92.0428 22.6045V6.98926H88.3953V9.62598H88.2049C87.2967 7.80957 85.5682 6.72559 83.3562 6.72559C79.2254 6.72559 76.7059 9.91895 76.7059 14.5479V14.5771C76.7059 19.1182 79.2254 22.2529 83.283 22.2529C85.4949 22.2529 87.2381 21.3154 88.1609 19.6016H88.41V22.6631C88.41 24.7139 86.9598 25.8711 84.4695 25.8711C82.4334 25.8711 81.2176 25.1533 80.9686 24.1279L80.9539 24.084H77.3064L77.2918 24.1279C77.658 26.8232 80.1922 28.625 84.4109 28.625ZM84.4109 19.3525C81.8768 19.3525 80.4412 17.4043 80.4412 14.5771V14.5479C80.4412 11.7207 81.8768 9.75781 84.4109 9.75781C86.9305 9.75781 88.4686 11.7207 88.4686 14.5479V14.5771C88.4686 17.4043 86.9451 19.3525 84.4109 19.3525ZM99.8105 23H103.458V13.6689C103.458 11.2666 104.806 9.74316 106.974 9.74316C109.186 9.74316 110.196 11.0029 110.196 13.4932V23H113.844V12.6436C113.844 8.83496 111.896 6.68164 108.321 6.68164C106.007 6.68164 104.469 7.72168 103.707 9.43555H103.458V6.98926H99.8105V23ZM121.831 23H125.611V16.0127H130.269C134.561 16.0127 137.461 13.1709 137.461 8.95215V8.92285C137.461 4.68945 134.561 1.8623 130.269 1.8623H121.831V23ZM129.346 4.95312C132.056 4.95312 133.638 6.40332 133.638 8.9375V8.9668C133.638 11.501 132.056 12.9658 129.346 12.9658H125.611V4.95312H129.346ZM148.334 23.2637C150.444 23.2637 152.143 22.3555 153.022 20.8027H153.271V23H156.874V12.0576C156.874 8.67383 154.56 6.68164 150.444 6.68164C146.635 6.68164 144.057 8.46875 143.705 11.1641L143.691 11.2959H147.133L147.148 11.2373C147.514 10.1826 148.598 9.58203 150.268 9.58203C152.231 9.58203 153.271 10.4609 153.271 12.0576V13.4346L149.155 13.6836C145.258 13.918 143.076 15.5879 143.076 18.4443V18.4736C143.076 21.3887 145.288 23.2637 148.334 23.2637ZM146.679 18.2979V18.2686C146.679 16.9502 147.631 16.2031 149.667 16.0713L153.271 15.8369V17.126C153.271 19.0303 151.645 20.4658 149.448 20.4658C147.836 20.4658 146.679 19.6602 146.679 18.2979ZM170.853 23.0732C171.556 23.0732 172.23 23.0146 172.757 22.9121V20.0996C172.318 20.1436 172.04 20.1582 171.527 20.1582C170.004 20.1582 169.374 19.4844 169.374 17.8877V9.81641H172.757V6.98926H169.374V3.06348H165.668V6.98926H163.177V9.81641H165.668V18.752C165.668 21.8428 167.176 23.0732 170.853 23.0732ZM179.837 23H183.484V13.6689C183.484 11.2666 184.832 9.74316 187 9.74316C189.212 9.74316 190.222 11.0029 190.222 13.4932V23H193.87V12.6436C193.87 8.83496 191.922 6.68164 188.347 6.68164C186.033 6.68164 184.495 7.72168 183.733 9.43555H183.484V0.792969H179.837V23Z" fill="#152E42"/>
</svg>
