<?xml version="1.0" encoding="UTF-8"?>
<svg id="Layer_1" data-name="Layer 1" xmlns="http://www.w3.org/2000/svg" viewBox="0 0 288 288">
  <defs>
    <style>
      .cls-1 {
        font-family: TenorSans, 'Tenor Sans';
        font-size: 12px;
        letter-spacing: .03em;
      }

      .cls-1, .cls-2 {
        fill: #282526;
      }
    </style>
  </defs>
  <path class="cls-2" d="m139,224.95l-.27-.26-75.76-75.76.27-.27,75.76-75.76.27.26,75.76,75.77-.27.27-75.76,75.76Zm-74.97-76.03l74.97,74.97,74.97-74.97-74.97-74.97-74.97,74.97Z"/>
  <path class="cls-2" d="m149,224.95l-.27-.26-75.76-75.76.27-.27,75.76-75.76.27.26,75.76,75.77-.27.27-75.76,75.76Zm-74.97-76.03l74.97,74.97,74.97-74.97-74.97-74.97-74.97,74.97Z"/>
  <text class="cls-1" transform="translate(116.88 150.89)"><tspan x="0" y="0">Langulary</tspan></text>
</svg>